<svg xmlns="http://www.w3.org/2000/svg" viewBox="0 0 205 63.41"><title>logo</title><path d="M168.59 44.76l-7.76-19.62a.39.39 0 0 0-.36-.25h-.47a.39.39 0 0 0-.36.25l-7.81 19.72a.39.39 0 0 0 .36.53h.47a.39.39 0 0 0 .36-.24l2.54-6.28h9.31l2.57 6.29a.39.39 0 0 0 .36.24h.49a.39.39 0 0 0 .39-.39.38.38 0 0 0-.09-.25zm-12.53-7.09l4.16-10.73 4.18 10.73h-8.34zM180.27 26.45a8.47 8.47 0 0 1 6.14 2.6 8.81 8.81 0 0 1 1.76 2.61.39.39 0 0 0 .36.23h.47a.39.39 0 0 0 .39-.39.38.38 0 0 0-.09-.25 10.2 10.2 0 0 0-2-3 9.71 9.71 0 0 0-14 0 10.21 10.21 0 0 0 0 14.23 9.71 9.71 0 0 0 14 0 10.19 10.19 0 0 0 2.08-3.15.39.39 0 0 0-.36-.54h-.47a.39.39 0 0 0-.36.23 8.75 8.75 0 0 1-1.76 2.58 8.48 8.48 0 0 1-12.28 0 8.87 8.87 0 0 1-2.55-6.26 9 9 0 0 1 2.56-6.26 8.47 8.47 0 0 1 6.11-2.63zM145.19 25.18h-6.72a.39.39 0 0 0-.39.39v19.43a.39.39 0 0 0 .39.39h.45a.39.39 0 0 0 .38-.39v-7h5.89c4.27 0 6.22-3.33 6.22-6.42s-1.95-6.4-6.22-6.4zm0 11.64h-5.89v-10.42h5.89a4.91 4.91 0 0 1 5 5.21 4.91 4.91 0 0 1-5 5.21zM126.61 34.66c-3.06-.3-5.71-.57-5.94-3.73a3.71 3.71 0 0 1 .78-2.71 6.24 6.24 0 0 1 4.78-2.07h.13a6.13 6.13 0 0 1 4.44 1.65 4 4 0 0 1 1 1.9v.22a.39.39 0 0 0 .16.27.4.4 0 0 0 .3.07l.42-.08a.39.39 0 0 0 .31-.43v-.25c-.59-3.14-3.72-4.55-6.56-4.55a7.41 7.41 0 0 0-5.91 2.55 4.92 4.92 0 0 0-1 3.51c.29 4.17 3.84 4.53 7 4.84 2.69.27 5.24.53 5.76 3a4 4 0 0 1-.78 3.45 6.63 6.63 0 0 1-5.09 2.14c-2.24 0-5.52-1.25-5.81-4.05v-.2a.38.38 0 0 0-.43-.33l-.44.06a.39.39 0 0 0-.34.44v.18c.35 3.31 3.87 5.1 7 5.1a7.94 7.94 0 0 0 6.03-2.64 5.07 5.07 0 0 0 1-4.4c-.72-3.34-3.95-3.66-6.81-3.94zM204.61 44.2h-9.94v-8.3h9.67a.39.39 0 0 0 .39-.39v-.44a.39.39 0 0 0-.39-.39h-9.67v-8.28h9.89a.39.39 0 0 0 .39-.39v-.42a.39.39 0 0 0-.39-.39h-10.73a.39.39 0 0 0-.39.39v19.41a.44.44 0 0 0 .44.39h10.72a.39.39 0 0 0 .4-.39v-.41a.39.39 0 0 0-.39-.39zM19.09.25h-1.5v6.15h4v-1.4h-2.5v-4.75zm16.63 1.2a2 2 0 0 0-1.81-1.21h-2.53v6.15h1.5v-2.23h1a2 2 0 0 0 1.84-2.71zm-1.2 1a.67.67 0 0 1-.61.41h-1v-1.33h1a.67.67 0 0 1 .61.92zm-8.96-2.45l-3 5.93 1.33.68 3-5.93zm.44 5.93l1.33.68 3-5.93-1.33-.68zM56.23 48.26a1.87 1.87 0 0 0 1.32.51 1.71 1.71 0 0 0 1.81-1.77v-13.17a.32.32 0 0 1 .64-.13c1.81 4 3.71 7.79 5.66 11.36a1.78 1.78 0 0 0 1.6.84 1.55 1.55 0 0 0 1.66-1.24c1.14-7.49 2-15.62 2.57-24.87a1.52 1.52 0 0 0-.38-1.19 1.75 1.75 0 0 0-1.28-.5 1.84 1.84 0 0 0-1.92 1.73c-.41 6.53-.93 12.26-1.57 17.52a.32.32 0 0 1-.26.27.31.31 0 0 1-.34-.17c-2.39-4.78-4.53-9.61-6.38-14.37a2 2 0 0 0-1.86-1.27 1.61 1.61 0 0 0-1.67 1.72v23.520000000000003a1.63 1.63 0 0 0 .4 1.21zM51.27 28.13a1.76 1.76 0 0 0-1.29-.5 1.82 1.82 0 0 0-1.91 1.73 99 99 0 0 0 .42 16.27 2 2 0 0 0 2 1.73 1.67 1.67 0 0 0 1.25-.49 1.45 1.45 0 0 0 .32-1.17 99.74 99.74 0 0 1-.42-16.38 1.53 1.53 0 0 0-.37-1.19zM77.83 23.69a1.82 1.82 0 0 0-1.33-.52 1.74 1.74 0 0 0-1.85 1.69 121.37 121.37 0 0 0 .68 20.38 1.31 1.31 0 0 0 1.38 1.28 2.22 2.22 0 0 0 1.61-.73 1.89 1.89 0 0 0 .47-1.51c-.21-1.82-.37-3.77-.51-6.15a.32.32 0 0 1 .15-.29.31.31 0 0 1 .32 0c.65.37 1.38.69 2 1s1 .45 1.4.66l8.44 4.5a1.85 1.85 0 0 0 .88.24 2 2 0 0 0 1.83-1.52 1.49 1.49 0 0 0-.81-1.72l-10.49-5.71a.31.31 0 0 1-.19-.29.32.32 0 0 1 .14-.28h.07l.53-.28c.44-.23.85-.44 1.19-.65l4.26-2.6a1.69 1.69 0 0 0 .82-2 1.83 1.83 0 0 0-1.69-1.38 1.93 1.93 0 0 0-.87.22 58.9 58.9 0 0 0-6.57 3.97c-.4.22-.76.43-1.11.65a.32.32 0 0 1-.32 0 .32.32 0 0 1-.16-.28c0-2.75 0-5.19.14-7.46a1.58 1.58 0 0 0-.41-1.22zM39.35 34.25a19.32 19.32 0 0 0-5.25.85.34.34 0 0 1-.27 0 .32.32 0 0 1-.14-.24l-.39-4.28a1.91 1.91 0 0 0-2-1.73 1.7 1.7 0 0 0-1.26.5 1.47 1.47 0 0 0-.34 1.18l1.4 15.11a1.91 1.91 0 0 0 2 1.73 1.69 1.69 0 0 0 1.26-.5 1.47 1.47 0 0 0 .34-1.18l-.62-6.59a.32.32 0 0 1 .2-.33 15.52 15.52 0 0 1 5.22-1 .32.32 0 0 1 .32.3c.2 3.9.52 7.78.94 11.53a2 2 0 0 0 2 1.73 1.66 1.66 0 0 0 1.24-.44 1.44 1.44 0 0 0 .31-1.17 197.11 197.11 0 0 1-1.22-22.17 1.63 1.63 0 0 0-.46-1.21 1.88 1.88 0 0 0-1.33-.51 1.69 1.69 0 0 0-1.8 1.72c0 1.93 0 4 .1 6.37a.32.32 0 0 1-.25.33zM29.12 21.82l-15 1.95a2 2 0 0 0-1.71 2.23 1.37 1.37 0 0 0 1.64 1.39l6.13-.8a.32.32 0 0 1 .21.08.32.32 0 0 1 .11.23l.5 18.7a1.75 1.75 0 0 0 1.85 1.73 1.82 1.82 0 0 0 1.31-.51 1.59 1.59 0 0 0 .43-1.2l-.48-19.29a.32.32 0 0 1 .28-.33l4.65-.6a2 2 0 0 0 1.72-2.2 1.37 1.37 0 0 0-1.64-1.38zM106.15 36.42c7.73-19.35-14.68-31-31.47-28.6-2.26.32-5.35 1.81-7.53.91-.37-.16-2.62-3-3-3.3a17.19 17.19 0 0 0-11.37-3.63c-8.62.33-15 6.71-19.14 13.74-6.7-4.63-15-6-22.63-2.19-6.96 3.48-12.6 10.88-10.6 18.88.47 1.9 3.41 1.09 2.93-.81-1.67-6.69 3.61-12.66 9.2-15.42 6.86-3.45 14.71-1.79 20.46 2.85a1.54 1.54 0 0 0 2.39-.31c5.51-10.23 22.06-21.62 30-6.61a1.54 1.54 0 0 0 1.72.7c8.08-2.27 16.61-3.44 24.62-.23 9.54 3.83 15.9 13.89 11.17 24a1.54 1.54 0 0 0 .55 2.08c8.95 4.09.29 11.23-3 13.07a36.25 36.25 0 0 1-7.16 2.66 70.88 70.88 0 0 1-16.11 3 61.07 61.07 0 0 1-15-.91c-3.35-.62-6.23-1.71-9.58-.75-4.24 1.22-7.69 3.61-12.2 4.34a62.07 62.07 0 0 1-14.53.31c-10.22-.78-29-8-19.82-21.65 1.09-1.63-1.54-3.15-2.63-1.53-6.41 9.55.41 20 10 23.78 5.76 2.2 12.39 2.55 18.58 2.6 8.31.07 14.86-3.13 22.78-4.23 8.12-1.13 16.61 1.61 25 .79a68.17 68.17 0 0 0 20.34-5c6.93-2.96 14.77-13.43 6.03-18.54z" fill="#45b153"/></svg>
