<svg xmlns="http://www.w3.org/2000/svg" viewBox="0 0 150 150"><defs><style>.cls-1{fill:#231f20;}.cls-2,.cls-3{fill:#f6a446;}.cls-2{fill-rule:evenodd;}</style></defs><title>dimando</title><path class="cls-1" d="M5 80c.1-3.59 0-7.11 0-10.67 0-2.38 0-4.8-.16-7.15l.23-.2h4a18.07 18.07 0 0 1 3.72.16 6.11 6.11 0 0 1 4.08 2.45 10 10 0 0 1 1.57 6c0 3.75-1.18 7.83-5.22 9.14a16.5 16.5 0 0 1-5.22.37c-.95 0-1.86 0-2.81.07zm4.7-2.15a5.8 5.8 0 0 0 3-.62c1.57-.91 2.58-3.07 2.58-6.79 0-2.09-.33-4.86-2.58-5.84a6.62 6.62 0 0 0-2.94-.39h-1.63v9.11l.1 4.5zM26.22 80v-12.34c0-1.83-.07-3.66-.16-5.48l.26-.2c.95 0 1.93 0 2.87-.07l.26.2c-.1 4-.07 8 0 12.08 0 1.93.07 3.82.13 5.74l-.2.2c-1 0-2 0-3 .07zM41.51 80.1c-1.12 0-2.21 0-3.3.07l-.21-.17c.07-2.91.07-5.83 0-8.74s0-5.9-.28-8.84l.21-.21c.67-.07 1.37-.18 2-.28.46-.11.91-.18 1.37-.28l.21.21q-.11 1.11-.11 2.21a6.82 6.82 0 0 1 4.88-2.46 3.75 3.75 0 0 1 3.62 2.49 7.26 7.26 0 0 1 5.4-2.53c1.37 0 3.58.39 4.32 3.62a21 21 0 0 1 .25 3.93v6.28c0 1.51.07 3 .18 4.49l-.25.21c-1.09 0-2.21 0-3.3.07l-.21-.17c.07-3.12.14-6.25.14-9.41 0-2.42 0-4.07-.53-5a2.19 2.19 0 0 0-2-1.12 4.07 4.07 0 0 0-2.81 1.26c-.21.18-.39.39-.6.6.14 1.23.11 2.46.18 3.72v1.61c0 2.77 0 5.51.18 8.28l-.21.21c-1.09 0-2.18 0-3.26.07l-.21-.22c.11-3.09.11-6.18.07-9.27 0-2.56 0-4.28-.67-5.26a2 2 0 0 0-1.82-1 4.62 4.62 0 0 0-3.23 1.82c0 4.56 0 9.12.21 13.62zM76.82 67.71v-.39a6.92 6.92 0 0 0-.14-1.47c-.25-1.05-.91-1.79-3-1.79a7.13 7.13 0 0 0-4.28 1.33l-.25-.18c.07-.81.14-1.61.14-2.42l.21-.25a3.21 3.21 0 0 1 .49-.25 14 14 0 0 1 4.67-.81c.7 0 4-.11 5.12 2.84a7 7 0 0 1 .35 2.7v10.620000000000001c0 .74.11 1.47.18 2.25l-.21.21c-1.05 0-2 0-3.05.07l-.16-.17-.07-1.19a6 6 0 0 1-4.18 1.61 5.55 5.55 0 0 1-2-.39 5.24 5.24 0 0 1-3-5.12 6.41 6.41 0 0 1 .91-3.37c1.4-2.28 4.32-3 6.7-3.54zm0 2.25a20 20 0 0 0-3.62.95 3.69 3.69 0 0 0-2.2 3.65 3.82 3.82 0 0 0 .21 1.33 2.81 2.81 0 0 0 2.67 1.86 4.52 4.52 0 0 0 3-1.37zM92.33 80.1c-1.09 0-2.21 0-3.33.07l-.22-.17c.11-2.39.14-4.77.14-7.16 0-1.86 0-3.69-.07-5.51 0-1.65-.07-3.26-.21-4.91l.21-.21c1.12-.14 2.28-.35 3.4-.56l.21.21c0 .67-.11 1.33-.14 2l.35-.32a5.09 5.09 0 0 0 .53-.39 7.35 7.35 0 0 1 4.25-1.54 3.77 3.77 0 0 1 3.79 2.49c.67 1.54.63 2.49.63 5.47v3c0 2.42 0 4.88.14 7.33l-.18.21c-1.12 0-2.21 0-3.33.07l-.14-.18c.07-1.44.07-2.88.07-4.32v-6.9799999999999995a11.77 11.77 0 0 0-.21-2.46 2.37 2.37 0 0 0-2.32-1.79 5 5 0 0 0-3.33 1.55l-.21.25v8c0 1.86.07 3.76.14 5.58zM110.56 80c.1-3.59 0-7.11 0-10.67 0-2.38 0-4.8-.16-7.15l.23-.2h4a18.07 18.07 0 0 1 3.72.16 6.11 6.11 0 0 1 4.08 2.45 10 10 0 0 1 1.57 6c0 3.75-1.18 7.83-5.22 9.14a16.5 16.5 0 0 1-5.25.46c-.95 0-1.86 0-2.81.07zm4.7-2.15a5.8 5.8 0 0 0 3-.62c1.57-.91 2.58-3.07 2.58-6.79 0-2.09-.33-4.86-2.58-5.84a6.62 6.62 0 0 0-2.94-.39h-1.63v9.11l.1 4.5zM143.19 78.7a6.72 6.72 0 0 1-4.81 1.79 7 7 0 0 1-4.07-1.19c-1.83-1.3-3.19-3.65-3.19-8.28 0-2.91.6-6.35 3.16-8.25a6.74 6.74 0 0 1 4.32-1.26c3.58 0 6.95 2.18 7.09 9.3.02 2.76-.4 5.85-2.5 7.89zm-2.81-14a2.57 2.57 0 0 0-1.93-.74 3.18 3.18 0 0 0-1.3.25c-1.54.74-2.39 3-2.39 6.56 0 3 .49 4.91 1.26 6a2.79 2.79 0 0 0 2.43 1.23 2.69 2.69 0 0 0 2.11-.84c.91-1 1.54-3.19 1.47-6.42-.03-1.74-.32-4.74-1.65-6.05z"/><path class="cls-2" d="M148.61 62h1.39v6.42h-1.39z"/><path class="cls-3" d="M126.84 61.95h1.39v6.42h-1.39zM105.61 61.95h1.39v6.42h-1.39zM83.84 61.95h1.39v6.42h-1.39zM63.54 61.95h1.39v6.42h-1.39zM32.99 61.95h1.39v6.42h-1.39zM21.29 61.95h1.39v6.42h-1.39zM.06 61.95h1.39v6.42h-1.39zM0 87.3h150v1.2h-150z"/></svg>