<svg xmlns="http://www.w3.org/2000/svg" xmlns:xlink="http://www.w3.org/1999/xlink" viewBox="0 0 200 200" enable-background="new 0 0 200 200"><defs><path id="a" d="M.5 133.9v-66.5h16.4v51.9h27.9v14.6h-44.8"/></defs><linearGradient id="b" gradientUnits="userSpaceOnUse" x1="22.398" y1="67.363" x2="22.398" y2="133.86"><stop offset="0" stop-color="#C0CF49"/><stop offset="1" stop-color="#9CBA4B"/></linearGradient><use xlink:href="#a" overflow="visible" fill="url(#b)"/><clipPath><use xlink:href="#a" overflow="visible"/></clipPath><defs><path id="c" d="M69.7 136.1l32.9-64.8-14.6-7.4-32.8 64.8z"/></defs><linearGradient id="d" gradientUnits="userSpaceOnUse" x1="78.889" y1="63.885" x2="78.889" y2="136.115"><stop offset="0" stop-color="#C0CF49"/><stop offset="1" stop-color="#9CBA4B"/></linearGradient><use xlink:href="#c" overflow="visible" fill="url(#d)"/><clipPath><use xlink:href="#c" overflow="visible"/></clipPath><defs><path id="e" d="M107.7 136.1l32.8-64.8-14.5-7.4-32.9 64.8z"/></defs><linearGradient id="f" gradientUnits="userSpaceOnUse" x1="116.816" y1="63.885" x2="116.816" y2="136.115"><stop offset="0" stop-color="#C0CF49"/><stop offset="1" stop-color="#9CBA4B"/></linearGradient><use xlink:href="#e" overflow="visible" fill="url(#f)"/><clipPath><use xlink:href="#e" overflow="visible"/></clipPath><defs><path id="g" d="M167.3 82h9.2c4.5 0 7.1 3.3 7.1 6.7 0 3.5-2.6 6.7-7.1 6.7h-9.2v-13.4zm-16.3-14.6v66.5h16.4v-23.7h10c14.8 0 22.7-10.5 22.7-21.4 0-10.9-7.9-21.4-22.7-21.4h-26.4z"/></defs><linearGradient id="h" gradientUnits="userSpaceOnUse" x1="175.48" y1="67.363" x2="175.48" y2="133.86"><stop offset="0" stop-color="#C0CF49"/><stop offset="1" stop-color="#9CBA4B"/></linearGradient><use xlink:href="#g" overflow="visible" fill="url(#h)"/><clipPath><use xlink:href="#g" overflow="visible"/></clipPath></svg>