<svg xmlns="http://www.w3.org/2000/svg" viewBox="0 0 150 150"><title>Monito</title><path d="M130.24 68.41a13.18 13.18 0 0 0 0 26.35l13.18-13.18z" fill="#3d843d"/><path d="M130.24 55.24a13.18 13.18 0 0 0 0 26.35l13.18-13.18z" fill="#8cc42d"/><path fill="#65a435" d="M136.797 75.004l6.589-6.589 6.589 6.589-6.589 6.589zM130.24 81.59l6.58-6.59-6.59-6.59a13.17 13.17 0 0 0-11.4 6.59 13.17 13.17 0 0 0 11.41 6.59z"/><path d="M8.14 66.76a5 5 0 0 1 4.86 3.13 5.89 5.89 0 0 1 5.3-3.13c4 0 5.83 2.87 5.83 6.36v9.69h-3.13v-8.67c0-2.54-.76-4.78-3.46-4.78s-4 2.57-4 5v8.43h-3.1v-9.27c0-2.44-.82-4.15-3.29-4.15-2.27 0-4 2-4 5.14v8.3h-3.02v-12.26c0-.82 0-2.34-.13-3.36h2.93c.07.81.13 1.91.13 2.57h.1a5.45 5.45 0 0 1 4.98-3zM36.73 83.24a8.24 8.24 0 1 1 0-16.47 8.24 8.24 0 1 1 0 16.47zm0-13.9c-3.33 0-5.21 2.67-5.21 5.63s1.88 5.67 5.21 5.67 5.2-2.7 5.2-5.67-1.84-5.64-5.2-5.64zM52.24 67.19c.07.79.13 1.91.13 2.57h.1a5.66 5.66 0 0 1 5.07-3c4 0 5.83 2.87 5.83 6.36v9.69h-3.1v-8.67c0-2.54-.69-4.78-3.56-4.78-2.44 0-4.18 2-4.18 5.14v8.3h-3.1v-12.25c0-.82 0-2.34-.13-3.36h2.93zM70.2 63.54a2 2 0 1 1 2.08-2 2 2 0 0 1-2.08 2zm1.55 19.27h-3.1v-15.62h3.1v15.62zM84.79 69.73h-4.15v8.14c0 1.88.66 2.64 2.21 2.64a4.38 4.38 0 0 0 1.81-.4l.1 2.54a8 8 0 0 1-2.64.43c-2.93 0-4.55-1.65-4.55-4.88v-8.47h-3v-2.54h3v-4.48h3.06v4.48h4.15v2.54zM95.36 83.24a8.24 8.24 0 1 1 8.44-8.24 8.1 8.1 0 0 1-8.44 8.24zm0-13.9c-3.36-.01-5.2 2.66-5.2 5.66s1.88 5.67 5.21 5.67 5.21-2.7 5.21-5.67-1.86-5.67-5.22-5.67z" fill="#5f7672"/></svg>
