<svg width="200" height="200" viewBox="0 0 200 200" xmlns="http://www.w3.org/2000/svg" xmlns:sketch="http://www.bohemiancoding.com/sketch/ns"><title>Artboard 1</title><desc>Created with Sketch.</desc><g sketch:type="MSShapeGroup" fill="none"><path d="M179.856 114.591v-14.794l-1.831 1.149-.395-3.519-3.375 1.041.539-3.483-3.519.108 1.436-3.232-3.447-.79 2.226-2.765-3.124-1.652.287-.215c-2.118-.395-4.488-.575-7.074-.575-9.048 0-14.865 3.268-16.984 6.715-2.011-12.639-11.598-21.544-27.684-21.544-15.691 0-25.171 8.474-27.504 20.61-3.519-3.591-8.725-5.817-15.548-5.817-8.402 0-14.399 3.339-17.702 8.546-1.364-13.609-11.059-23.375-27.899-23.375-18.205 0-28.079 11.418-28.079 26.75 0 15.835 8.187 28.043 28.079 28.043 5.242 0 9.695-1.005 13.501-2.908l4.847 4.309c1.077.934 1.795 1.508 3.627 1.508 2.226 0 4.309-2.406 4.309-4.417 0-.79-.395-1.544-1.005-2.047l-4.847-4.273c2.047-2.011 3.627-4.381 4.847-6.966 1.652 8.259 7.576 14.722 20.323 14.722 10.772 0 16.697-4.632 19.246-11.059 4.273 6.822 11.993 11.131 23.806 11.131 5.242 0 9.731-1.005 13.501-2.908l4.847 4.309c1.077.934 1.759 1.508 3.627 1.508 2.226 0 4.309-2.406 4.309-4.417 0-.79-.395-1.544-1.005-2.047l-4.847-4.273c1.58-1.544 2.873-3.303 3.95-5.206-.108.682-.144 1.4-.144 2.154 0 6.679 6.32 10.844 12.711 10.844 5.925 0 11.023-1.616 15.44-6.176.144 3.268 1.759 6.176 6.643 6.176 2.693 0 5.099-1.688 5.099-4.057-.036-1.652-1.185-2.693-1.185-7.11zm-139.497-3.914l-4.381-3.77c-1.077-.934-1.759-1.544-3.627-1.544-2.226 0-4.309 2.406-4.309 4.417 0 .79.395 1.508 1.005 2.047l4.309 3.77c-1.472.431-3.16.646-5.099.646-11.885 0-15.44-8.438-15.44-18.456 0-10.018 5.099-17.127 15.44-17.127s15.404 7.11 15.404 17.127c.036 5.027-.969 9.623-3.303 12.89zm33.501 7.253c-6.715 0-9.551-5.673-9.551-12.136 0-6.894 3.016-12.065 9.551-12.065 6.571 0 9.551 5.171 9.551 12.065.036 6.463-2.837 12.136-9.551 12.136zm55.189-7.253l-4.417-3.77c-1.077-.934-1.759-1.544-3.627-1.544-2.226 0-4.309 2.406-4.309 4.417 0 .79.395 1.508 1.005 2.047l4.309 3.77c-1.472.431-3.16.646-5.099.646-11.885 0-15.44-8.438-15.44-18.456 0-10.018 5.099-17.127 15.44-17.127s15.404 7.11 15.404 17.127c.036 5.027-.969 9.623-3.268 12.89zm39.569.431c0 3.914-3.77 7.72-9.946 7.72-3.842 0-6.248-1.975-6.248-4.345 0-3.196 2.549-4.596 7.253-5.242l4.093-.575c1.329-.215 3.627-.575 4.847-1.652v4.093zm-4.883-9.084l-6.858.718c-5.673.61-10.664 1.903-13.429 5.206 1.005-3.052 1.508-6.32 1.544-9.623.826.754 2.047 1.257 3.483 1.257 4.452 0 4.704-5.817 13.034-5.817 3.77 0 7.11 1.329 7.11 4.345 0 3.052-2.154 3.627-4.883 3.914z" id="Shape" fill="#E12386"/><path d="M197.522 86.224l2.37-1.724-2.621-1.4 1.867-2.298-2.873-.646 1.185-2.693-2.944.108.467-2.908-2.837.862-.323-2.944-2.513 1.58-1.077-2.765-2.011 2.154-1.759-2.37-1.4 2.621-2.298-1.867-.646 2.873-2.693-1.185.108 2.944-2.908-.467.862 2.837-2.944.323 1.58 2.513-2.765 1.077 2.154 2.011-2.37 1.759 2.621 1.364-1.867 2.298 2.873.682-1.185 2.693 2.944-.108-.467 2.908 2.837-.862.323 2.944 2.513-1.58 1.077 2.765 2.011-2.154 1.759 2.37 1.4-2.621 2.298 1.867.646-2.873 2.693 1.185-.108-2.944 2.908.467-.862-2.837 2.944-.323-1.58-2.513 2.765-1.077-2.154-2.047zm-19.497 3.986c-.718.144-1.4-.287-1.544-.969-.144-.682.323-1.364 1.041-1.472.718-.144 1.4.287 1.544.969.144.646-.323 1.329-1.041 1.472zm5.996-.718c-2.334.467-3.698-.682-4.057-2.549-.431-2.083.503-3.77 2.801-4.237 1.58-.323 2.908.287 3.088 1.113.108.503-.251.862-.718.934-.898.18-.79-.934-2.154-.646-.754.144-1.508.79-1.149 2.442.215 1.113.934 1.724 1.975 1.508 1.329-.251.79-1.364 1.795-1.58.467-.108.862.18.934.539.108.79-.61 2.083-2.513 2.478zm8.689-1.795c-.718.144-1.041-.215-1.113-.718l-.646-3.124c-.144-.718-.61-1.149-1.436-1.005-.646.144-1.329.826-1.149 1.724l.61 2.944c.108.467-.036.934-.754 1.077-.754.144-1.041-.215-1.113-.718l-1.508-7.361c-.108-.61.18-.969.754-1.077.575-.108 1.005.108 1.113.718l.503 2.478h.036c.287-.539.826-1.149 1.903-1.364 1.149-.251 2.478.036 2.837 1.867l.718 3.483c.108.467-.036.934-.754 1.077z" fill="#3EA6DE"/></g></svg>