<svg xmlns="http://www.w3.org/2000/svg" viewBox="0 0 150 150"><defs><style>.cls-1{fill:#2296f3;}</style></defs><title>skioo</title><path class="cls-1" d="M87 74.43l5.69-15.43c.53-1.44-.45-1.21-1.29-1.06s-3 .61-3.87.84-1.67 1-2.2 2.66c-.15.47-1.34 4-2.72 8.05-6.07 10.78-8.79 9.15-9.12 7.93-.56-2.1-1.54-7.44-2.07-10.37 4.63-3.34 8.76-5.55 9.36-6.08a3 3 0 0 0 1.3-2.39c-.06-.69-.54-3.62-.65-4.29s-.83-1-2.06-.22c-.5.31-6.55 4.8-12.79 9.87a89.69 89.69 0 0 0-7.45 6.87c.33-1 .66-2 1-3 3.26-10.16 10.49-29.7 10.63-30.77.2-1.52-.36-1.74-1.14-1.59s-5 1.37-5.82 1.59-1.56 1-2.06 2.66c-.16.52-5.87 19.06-8.71 27.69l-.19.56v8.11c0 4.18-2.35 8.39-7 12.58l-.3.85c-.43 1.21-.21 2 .43 1.9s4.86-1.11 5.34-1.26c.86-.26 1.29-.92 1.76-2.17a58.5 58.5 0 0 1 12.2-15.89c.71 3.76 2.34 12 3.19 13.75 1.47 3 8.45-4.54 11.43-8.33-1 2.82-1.71 5-1.85 5.37-.46 1.21-.23 2 .46 1.9s3.35-.61 3.87-.76a2.16 2.16 0 0 0 .7-.33c.93-.53 3.93-9.24 3.93-9.24zM88.49 56.5c.68-.09 3.64-.69 4.15-.83 1.06-.3 1.54-1.08 2.14-2.75s1.75-4.18 2.28-5.62-.46-1.21-1.29-1.06-3.23.66-4.06.89-1.41 1-2.07 2.58c-.44 1.08-1.12 2.88-1.57 4.33-.39 1.24-.57 2.6.42 2.47M29.53 68.54c-5.17-4.15-6.65-5.13-12-9.37-5.52-4.39-.42-9.32-.42-9.32a159.62 159.62 0 0 1 15.13-13.39c-2.37-.23-4.68-.38-6.64-.38h-.1c-7.8 0-20.9 2.38-22.06 2.59a3.52 3.52 0 0 0-3.44 3.52v33.69c0 2.91 1.39 5.69 3.47 8.22 3.91-2.31 13.53-6.2 19.72-8.1 7.18-2.18 10.64-4 6.34-7.47M51.26 75.88v-33.69a3.52 3.52 0 0 0-3.44-3.52c-.43-.08-2.52-.45-5.37-.9-4 3.24-7.93 6.16-7.93 6.16s-8.86 6.79-9.41 8.92c-.44 1.75.74 2.78 2.85 4.19s8.24 6.42 11 8.51c3.3 2.54 8.45 10.83-4.5 15.16-9.61 3.21-17 5.91-24.18 9.5a73 73 0 0 0 12.51 7.06 8.63 8.63 0 0 0 2.85 1 9 9 0 0 0 2.91-1c.93-.4 22.75-9.82 22.75-21.39"/><path class="cls-1" d="M150 58.35a2 2 0 0 0-.59-1.42 2 2 0 0 0-.7-.44c-7.5-4.56-16.63-3.39-24.66.76-4.64-2.33-12.59-.77-19 2.25-4-1.85-10.74 1.2-16.46 10.4l3.62-9.79c-4.25 5.31-7.68 11.29-12.08 16.5-1.1 3.25-2 5.85-2.15 6.27-.45 1.21-.23 2 .46 1.9s3.28-.46 3.79-.61a2.31 2.31 0 0 0 .41-.16c.9-.41 2.28-1.47 3.49-4.22 4.75-10.89 8.87-14.6 11.8-15.58l-.08.07a27.47 27.47 0 0 0-6.77 9.25c-.9 2.17-1.92 5.29-.64 7.52 1.16 2 3.49 2.36 5.61 2 6.8-1.09 12.49-6.9 13.25-13.53.15-1.29.68-5.08-1.17-7.73 4.74-2.25 8.37-2.57 10.77-1.62a24.76 24.76 0 0 0-2.54 2.05 27.5 27.5 0 0 0-6.77 9.25c-.9 2.17-1.92 5.29-.63 7.52 1.16 2 3.49 2.36 5.6 2 6.8-1.08 12.49-6.9 13.25-13.53a15.25 15.25 0 0 0-.1-5.24 7.81 7.81 0 0 0-.53-1.76c6.42-1.74 12.07-1.16 16 1.72a2 2 0 0 0 2.6.21l3.32-2.39.1-.07a2 2 0 0 0 .8-1.58zm-46.84 12.88c-.43 2.38-2.61 6.61-5.48 7.09-2.55.43-1-3.83-.51-5.06a29.42 29.42 0 0 1 6-8c.32.41.64 2.43-.01 5.97zm18.52-2c-.45 2.38-2.46 6.76-5.33 7.24-2.55.43-1-4.41-.61-5.67.85-2.67 5.6-7.83 5.82-7.84.61 1.52.44 4.35.12 6.22zM28.83 104.16a8.16 8.16 0 0 1 2.94.48 2.54 2.54 0 0 1-.56 1.65 7.81 7.81 0 0 0-2-.28c-1.2 0-1.78.36-1.78 1.08s1.16 1 2.34 1.37 2.46 1.15 2.46 3c0 2-1.24 3.13-3.78 3.13a7.67 7.67 0 0 1-3.34-.69 3.12 3.12 0 0 1 .53-1.71 9.2 9.2 0 0 0 2.66.43c1.11 0 1.61-.36 1.61-1.08s-.63-.92-1.44-1.2c-1.4-.46-3.3-.88-3.3-3.09-.03-1.84 1.13-3.09 3.66-3.09zM38.76 104.45a4.76 4.76 0 0 1 1.12-.13 5.53 5.53 0 0 1 1.19.13l-2.8 4.55 3.23 5.3a6.13 6.13 0 0 1-1.32.13 5 5 0 0 1-1.23-.13l-2.59-4.3h-.53v4.27a3.67 3.67 0 0 1-1.12.13 4.14 4.14 0 0 1-1.12-.13v-9.82a4.2 4.2 0 0 1 1.13-.13 4 4 0 0 1 1.11.13v3.87h.53zM42.4 104.45a4.22 4.22 0 0 1 1.11-.13 4.46 4.46 0 0 1 1.13.13v9.82a4.54 4.54 0 0 1-1.12.13 3.9 3.9 0 0 1-1.12-.13zM57.52 104.33a10.67 10.67 0 0 1 1.47.13v9.82a3.69 3.69 0 0 1-1.06.13 3.91 3.91 0 0 1-1.09-.13v-2.94c0-1.64.08-3.68.18-4.43h-.08c-.17.6-.74 2.13-1.22 3.27l-.91 2.14a2.64 2.64 0 0 1-.8.1 2 2 0 0 1-.74-.1c-.29-.69-.6-1.37-.88-2.06a31.64 31.64 0 0 1-1.26-3.36h-.13a29.67 29.67 0 0 1 .24 4.21v3.16a3.32 3.32 0 0 1-1 .13 3.44 3.44 0 0 1-1-.13v-9.82a8.61 8.61 0 0 1 1.37-.13 6.69 6.69 0 0 1 1.33.13l1.16 2.55a19.65 19.65 0 0 1 1 2.7h.07a9.24 9.24 0 0 1 .48-1.59c.49-1.2 1-2.46 1.55-3.68a6.56 6.56 0 0 1 1.32-.1zM64.76 104.16c2.57 0 4.22 1.57 4.22 5.2s-1.62 5.2-4.22 5.2-4.24-1.57-4.24-5.2 1.66-5.2 4.24-5.2zm0 1.75c-1.15 0-1.86.67-1.86 3.46s.71 3.44 1.86 3.44 1.86-.67 1.86-3.44-.7-3.46-1.86-3.46zM74.39 104.33c2.14 0 3.3 1.24 3.3 3.09a2.84 2.84 0 0 1-1.75 2.8l2.28 4.06a5.33 5.33 0 0 1-1.27.13 5 5 0 0 1-1.23-.13l-2.07-3.78h-.87v3.78a4.22 4.22 0 0 1-1.11.13 4 4 0 0 1-1.13-.13v-9.95zm-1.61 4.43h1.29a1.35 1.35 0 0 0 0-2.7h-1.29zM85.52 104.33a2.64 2.64 0 0 1 .14.81 2.8 2.8 0 0 1-.14.9h-3.89v2.43h3.19a2.74 2.74 0 0 1 .14.83 2.61 2.61 0 0 1-.14.87h-3.19v2.53h4a2.5 2.5 0 0 1 .14.84 2.45 2.45 0 0 1-.14.87h-6.24v-10.08zM92.19 114.27a4.46 4.46 0 0 1-1.13.13 4.22 4.22 0 0 1-1.11-.13v-9.95h6a2.84 2.84 0 0 1 .14.84 2.62 2.62 0 0 1-.14.87h-3.76v2.62h3.33a2.25 2.25 0 0 1 .14.83 2.59 2.59 0 0 1-.14.88h-3.33zM101.23 104.16c2.57 0 4.22 1.57 4.22 5.2s-1.62 5.2-4.22 5.2-4.23-1.56-4.23-5.2 1.64-5.2 4.23-5.2zm0 1.75c-1.15 0-1.86.67-1.86 3.46s.71 3.44 1.86 3.44 1.86-.67 1.86-3.44-.7-3.46-1.86-3.46zM110.85 104.33c2.14 0 3.3 1.24 3.3 3.09a2.84 2.84 0 0 1-1.75 2.8l2.28 4.06a5.32 5.32 0 0 1-1.27.13 5 5 0 0 1-1.23-.13l-2.07-3.78h-.87v3.78a4.22 4.22 0 0 1-1.1.13 4 4 0 0 1-1.13-.13v-9.95zm-1.61 4.43h1.29a1.35 1.35 0 0 0 0-2.7h-1.29zM118.61 104.45a4.22 4.22 0 0 1 1.11-.13 4.46 4.46 0 0 1 1.13.13v8.13h3.92a2.81 2.81 0 0 1 .14.91 3.33 3.33 0 0 1-.14.91h-6.15zM132.18 104.33a2.64 2.64 0 0 1 .14.81 2.8 2.8 0 0 1-.14.9h-3.89v2.43h3.19a2.74 2.74 0 0 1 .14.83 2.61 2.61 0 0 1-.14.87h-3.19v2.53h4a2.5 2.5 0 0 1 .14.84 2.45 2.45 0 0 1-.14.87h-6.27v-10.08zM137.16 104.16a8.16 8.16 0 0 1 2.94.48 2.54 2.54 0 0 1-.56 1.65 7.81 7.81 0 0 0-2-.28c-1.2 0-1.78.36-1.78 1.08s1.16 1 2.34 1.37 2.46 1.15 2.46 3c0 2-1.25 3.13-3.78 3.13a7.67 7.67 0 0 1-3.34-.69 3.12 3.12 0 0 1 .53-1.71 9.2 9.2 0 0 0 2.66.43c1.11 0 1.61-.36 1.61-1.08s-.63-.92-1.44-1.2c-1.4-.46-3.3-.88-3.3-3.09-.03-1.84 1.13-3.09 3.66-3.09zM145.23 104.16a8.16 8.16 0 0 1 2.94.48 2.54 2.54 0 0 1-.56 1.65 7.81 7.81 0 0 0-2-.28c-1.2 0-1.78.36-1.78 1.08s1.16 1 2.34 1.37 2.46 1.15 2.46 3c0 2-1.25 3.13-3.78 3.13a7.67 7.67 0 0 1-3.34-.69 3.12 3.12 0 0 1 .53-1.71 9.2 9.2 0 0 0 2.66.43c1.11 0 1.61-.36 1.61-1.08s-.63-.92-1.44-1.2c-1.4-.46-3.3-.88-3.3-3.09-.03-1.84 1.13-3.09 3.66-3.09z"/></svg>