<svg xmlns="http://www.w3.org/2000/svg" viewBox="0 0 200 200" enable-background="new 0 0 200 200"><style type="text/css">.st0{fill:#373B4A;}</style><g id="Layer_4"><path class="st0" d="M116 110.1c3.1-8.3 7.1-19.3 7.6-20.5.7-1.9-.6-1.6-1.7-1.4-1.1.2-4 .8-5.2 1.1-1.1.3-2.2 1.3-2.9 3.5-.2.6-1.8 5.3-3.6 10.7-8.1 14.4-11.7 12.2-12.2 10.6-.8-2.8-2.1-9.9-2.8-13.8 6.2-4.4 11.7-7.4 12.5-8.1 1.4-1.2 1.8-2.3 1.7-3.2-.1-.9-.7-4.8-.9-5.7-.1-.9-1.1-1.3-2.7-.3-.7.4-8.7 6.4-17.1 13.2-3.8 3.1-7.2 6.4-9.9 9.2l1.3-4c4.3-13.5 14-39.6 14.2-41 .3-2-.5-2.3-1.5-2.1-1 .2-6.7 1.8-7.8 2.1-1 .3-2.1 1.3-2.7 3.5-.2.7-7.8 25.4-11.6 36.9-.1.2-.2.5-.2.8v10.8c0 5.6-3.1 11.2-9.3 16.8l-.4 1.1c-.6 1.6-.3 2.6.6 2.5.9-.1 6.5-1.5 7.1-1.7 1.1-.3 1.7-1.2 2.3-2.9 4.2-8.1 9.8-15.2 16.3-21.2 1 5 3.1 16 4.3 18.3 2 4 11.3-6.1 15.2-11.1-1.3 3.8-2.3 6.6-2.5 7.2-.6 1.6-.3 2.6.6 2.5.9-.1 4.5-.8 5.2-1 .4-.1.7-.2.9-.4 1.2-.8 5.2-12.4 5.2-12.4zm2-23.9c.9-.1 4.9-.9 5.5-1.1 1.4-.4 2-1.4 2.9-3.7.8-2.2 2.3-5.6 3-7.5.7-1.9-.6-1.6-1.7-1.4-1.1.2-4.3.9-5.4 1.2-1.1.3-1.9 1.3-2.8 3.4-.6 1.4-1.5 3.8-2.1 5.8-.5 1.7-.7 3.5.6 3.3m-78.6 16.1c-6.9-5.5-8.9-6.8-16-12.5-7.4-5.8-.6-12.4-.6-12.4s10.4-10.6 20.2-17.9c-3.2-.3-6.2-.5-8.9-.5h-.1c-10.4 0-27.9 3.2-29.4 3.5-2.5 0-4.6 2.1-4.6 4.6v44.9c0 3.9 1.8 7.6 4.6 11 5.2-3.1 18-8.3 26.3-10.8 9.6-2.9 14.2-5.3 8.5-9.9m28.9 9.8v-45c0-2.6-2.1-4.6-4.6-4.7-.6-.1-3.4-.6-7.2-1.2-5.3 4.4-10.5 8.3-10.5 8.3s-11.8 9-12.5 11.9c-.6 2.3 1 3.7 3.8 5.6 2.7 1.8 11 8.6 14.6 11.3 4.4 3.4 11.3 14.4-6 20.2-12.8 4.3-22.6 7.9-32.2 12.7 7.7 5.6 16 9.1 16.7 9.4 1.2.5 2.7 1.3 3.8 1.3 1.1 0 2.7-.8 3.9-1.3 1.1-.5 30.2-13.1 30.2-28.5m47.7-2 7.4-8.1"/><path class="st0" d="M200 88.7c0-.7-.3-1.4-.8-1.9-.3-.3-.6-.5-.9-.6-10-6.1-22.2-4.5-32.9 1-6.2-3.1-16.8-1-25.4 3-5.4-2.5-14.3 1.6-21.9 13.9 2-5.4 3.9-10.7 4.8-13.1-5.7 7.1-10.2 15.1-16.1 22-1.5 4.3-2.7 7.8-2.9 8.4-.6 1.6-.3 2.6.6 2.5.9-.1 4.4-.6 5.1-.8.2-.1.4-.1.5-.2 1.2-.5 3-2 4.7-5.6 6.4-14.5 11.9-19.4 15.8-20.7l-.1.1c-3.7 3.4-7.1 7.7-9 12.3-1.2 2.9-2.6 7.1-.8 10 1.5 2.7 4.7 3.1 7.5 2.7 9.1-1.4 16.7-9.2 17.7-18 .2-1.7.9-6.8-1.6-10.3 6.3-3 11.2-3.4 14.4-2.2-1.2.8-2.3 1.7-3.4 2.7-3.7 3.4-7.1 7.7-9 12.3-1.2 2.9-2.6 7.1-.8 10 1.5 2.7 4.7 3.1 7.5 2.7 9.1-1.4 16.7-9.2 17.7-18 .1-1.2.5-4.1-.1-7-.2-.9-.4-1.6-.7-2.4 8.6-2.3 16.1-1.5 21.3 2.3.5.5 1.2.8 1.9.8.6 0 1.1-.2 1.6-.5l4.4-3.2.1-.1h.1c.3-.5.7-1.3.7-2.1zm-62.5 17.2c-.6 3.2-3.5 8.8-7.3 9.4-3.4.6-1.4-5.1-.7-6.7 2.1-4.8 7.7-10.7 8-10.7.5.5.9 3.2 0 8zm24.7-2.8c-.6 3.2-3.3 9-7.1 9.6-3.4.6-1.3-5.9-.8-7.6 1.1-3.6 7.5-10.4 7.8-10.5.8 2.3.6 6 .1 8.5z"/></g></svg>