<svg xmlns="http://www.w3.org/2000/svg" viewBox="0 0 200 200" enable-background="new 0 0 200 200"><path d="M175 143.8l1.7 1.7v5.2l-1.7 1.7h-2.4v-1.7h1.8l.6-.6v-4l-.5-.5h-2.3l-.6.6v4.6l-1.7 1.7h-3.4l-1.7-1.7v-5.2l1.7-1.7h2.4v1.7h-1.9l-.6.6v4l.5.5h2.3l.6-.6v-4.6l1.7-1.7h3.5zM176.8 132.9v5.2l-1.7 1.7h-10.4v-1.7h9.6l.7-.7v-3.7l-.7-.7h-9.7v-1.7h10.4l1.8 1.6zM172.1 119.2v5.2h4.7v1.7h-12.1v-6.9l1.7-1.7h3.9l1.8 1.7zm-5.1 0l-.6.6v4.6h3.9v-4.5l-.7-.7h-2.6zM176.8 114h-12.1v-7.4h1.7v5.7h3.5v-5.3h1.7v5.3h3.5v-5.7h1.7v7.4zM176.8 95.5h-4.1l-.6.6v4.6h4.7v1.7h-12.1v-6.9l1.7-1.7h3.9l.9.9.9-.9h4.7v1.7zm-9.8 0l-.6.6v4.6h3.9v-4.5l-.7-.7h-2.6zM166.4 85.8h10.4v1.7h-10.4v3.5h-1.7v-8.6h1.7v3.4zM176.8 79.3h-12.1v-7.4h1.7v5.7h3.5v-5.3h1.7v5.3h3.5v-5.7h1.7v7.4zM176.8 62l-4.5 2.7 4.5 2.7v2.1l-6.3-3.7-5.8 3.4v-2.1l4-2.4-4-2.4v-2.1l5.8 3.4 6.3-3.7v2.1zM166.4 53.4h10.4v1.7h-10.4v3.5h-1.7v-8.6h1.7v3.4zM144.3 31.8h-106l-15.1 15.1v106.1l15.5 15.2h75.4l15-15v-30.3l-15.1-15.4h-40.4l-5.1-5.1.1-20.5 4.7-4.7h35.5l5.2 5.2v15.9h15.1v-20.9l-15.1-15.3h-45.5l-15.2 15.1v30.2l15.3 15.3h40.2l5.2 5.2v20.4l-4.7 4.7h-65.4l-5.3-5.1v-96.3l4.6-4.6h95.9l5.3 5.1v101.2h15.2v-106.3z"/></svg>