<svg xmlns="http://www.w3.org/2000/svg" viewBox="0 0 200 200" enable-background="new 0 0 200 200"><style type="text/css">.st0{fill:#8CC42D;} .st1{fill:#595958;}</style><path class="st0" d="M7.8 79h-7.8v-8h24.4v8h-7.9v36.4h-8.7v-36.4zM40.1 115.5l-.5-3.2h-.1c-1.8 2.5-4.3 3.7-7.1 3.7-4.9 0-8.5-4.1-8.5-9.8 0-8.4 7.4-11.9 14.8-12v-.7c0-2.5-1.5-4.3-4.5-4.3-2.6 0-4.7.7-6.6 1.8l-1.6-5.9c1.8-1.1 5.5-2.4 10-2.4 9.8 0 11.4 6.9 11.4 13.4v12c0 2.6.1 5.2.5 7.4h-7.8zm-1.2-15.7c-2.9.1-6.9 1-6.9 5.5 0 3.2 1.8 4.4 3.1 4.4 1.4 0 3-.9 3.6-2.8.1-.5.2-1 .2-1.5v-5.6zM59.1 83.2l1.7 13.9c.5 3.5.9 6.7 1.1 9.8h.2c.5-3 1.2-6.6 1.8-9.6l2.8-14h6.7l2.8 13.7c.7 3.6 1.3 6.8 1.6 10h.2c.2-3 .6-6.4 1.1-9.9l2-13.8h8.5l-8.3 32.2h-7.3l-2.4-11.3c-.7-3-1.3-6.4-1.6-10.1h-.1c-.4 3.8-1.1 7.1-1.8 10.1l-2.8 11.2h-7.4l-7.9-32.2h9.1zM101.8 74.7c.1 2.8-1.9 4.7-4.5 4.7-2.4 0-4.3-1.9-4.3-4.7-.1-2.9 2-4.7 4.4-4.7 2.5 0 4.4 1.8 4.4 4.7zm-8.6 40.8v-32.3h8.6v32.2h-8.6z"/><path class="st1" d="M109.9 71.6c2.8-.5 6.4-.9 11-.9 5.7 0 9.8 1.3 12.5 3.7 2.4 2.1 3.9 5.3 3.9 9.3 0 4-1.2 7.2-3.4 9.5-3 3.2-8 4.9-13.6 4.9-1.7 0-3.3-.1-4.6-.4v17.8h-5.7v-43.9zm5.7 21.4c1.3.3 2.8.5 4.7.5 6.9 0 11.1-3.4 11.1-9.5 0-5.9-4.2-8.7-10.5-8.7-2.5 0-4.4.2-5.4.5v17.2zM160.7 115.5l-.5-4h-.2c-1.8 2.5-5.2 4.7-9.8 4.7-6.5 0-9.8-4.5-9.8-9.2 0-7.7 6.9-11.9 19.2-11.9v-.7c0-2.6-.7-7.4-7.2-7.4-3 0-6.1.9-8.3 2.4l-1.3-3.8c2.6-1.7 6.5-2.8 10.5-2.8 9.8 0 12.1 6.7 12.1 13v11.9c0 2.8.1 5.5.5 7.6h-5.2zm-.9-16.3c-6.3-.1-13.5 1-13.5 7.2 0 3.8 2.5 5.5 5.5 5.5 4.2 0 6.8-2.6 7.7-5.3.2-.6.3-1.3.3-1.8v-5.6zM176.3 83.6l7 18.8c.7 2.1 1.5 4.6 2 6.5h.1c.6-1.9 1.3-4.3 2-6.7l6.3-18.7h6.1l-8.7 22.7c-4.2 10.9-7 16.5-10.9 20-2.8 2.5-5.7 3.5-7.1 3.8l-1.4-4.9c1.4-.5 3.4-1.4 5.1-2.8 1.6-1.3 3.6-3.5 4.9-6.5.3-.6.5-1.1.5-1.4 0-.3-.1-.8-.4-1.5l-11.8-29.3h6.3z"/></svg>