<svg width="200" height="200" viewBox="0 0 200 200" xmlns="http://www.w3.org/2000/svg" xmlns:sketch="http://www.bohemiancoding.com/sketch/ns"><title>Artboard 1</title><desc>Created with Sketch.</desc><path d="M199.673 133.672v-17.044c0-2.815-.793-4.927-2.377-6.336-1.582-1.409-3.749-2.112-6.493-2.112-1.65 0-3.142.377-4.482 1.127-1.343.752-2.353 1.689-3.032 2.809h-.096v-12.724h-5.524v34.28h5.524v-14.642c0-.898.146-1.746.435-2.547.292-.799.696-1.493 1.212-2.088.522-.595 1.168-1.07 1.892-1.391.745-.336 1.588-.504 2.526-.504 1.65 0 2.861.438 3.635 1.32.774.886 1.197 2.304 1.263 4.255v15.606h5.524l-.006-.009zm-43.474-9.073c-.239-1.007-.36-2.038-.362-3.073 0-1.889.225-3.416.68-4.587.453-1.165 1.015-2.079 1.696-2.736.677-.657 1.419-1.104 2.228-1.346.738-.228 1.505-.348 2.277-.358 1.552 0 2.835.394 3.854 1.177 1.019.784 1.641 1.942 1.869 3.48h5.524c-.131-1.537-.518-2.864-1.165-3.985-.625-1.095-1.476-2.044-2.496-2.784-1.056-.755-2.237-1.317-3.489-1.658-1.349-.372-2.743-.557-4.143-.55-2.069 0-3.872.342-5.404 1.032-1.48.645-2.796 1.613-3.854 2.832-1.036 1.2-1.81 2.618-2.327 4.248-.525 1.695-.786 3.461-.774 5.235 0 1.825.266 3.521.799 5.089.54 1.569 1.323 2.923 2.35 4.058 1.065 1.157 2.364 2.073 3.81 2.689 1.504.657 3.241.984 5.212.984 3.226 0 5.825-.855 7.778-2.569 1.956-1.712 3.191-4.184 3.708-7.416h-5.524c-.258 1.79-.912 3.182-1.962 4.175-1.051.993-2.384 1.489-4 1.489-1.197 0-2.215-.248-3.051-.745-.826-.483-1.53-1.149-2.058-1.947-.55-.834-.946-1.76-1.168-2.734h-.007zm6.347-38.861c0-6.489-2.184-12.006-6.312-15.95-4.569-4.372-11.171-6.584-19.62-6.584h-18.94c-1.219 9.029-5.774 17.004-12.4 22.676v40.158c0 4.581 3.761 8.307 8.38 8.307 4.623 0 8.385-3.726 8.385-8.307v-17.971h14.572c16.238 0 25.933-8.35 25.933-22.331l.003.003zm-16.867 0c0 3.197-1.936 6.613-7.372 6.613h-16.267v-13.521h16.267c5.82 0 7.372 4.342 7.372 6.908zm-32.759-27.391c0-17.314-14.172-31.346-31.65-31.346-17.474 0-31.641 14.034-31.641 31.346 0 14.413 9.825 26.543 23.197 30.207v37.323c0 4.672 3.834 8.47 8.545 8.47 4.677 0 8.35-3.723 8.35-8.467v-37.328c13.365-3.664 23.197-15.796 23.197-30.204h.001zm-5.045 6.083c-3.39 14.556-18.05 23.622-32.742 20.264-14.695-3.358-23.854-17.879-20.461-32.438 3.387-14.546 18.05-23.62 32.745-20.258 14.686 3.358 23.85 17.883 20.457 32.438l.001-.006zm-26.771-25.035c0-1.279-1.047-2.317-2.339-2.317h-.164c-8.73.385-16.502 6.244-18.996 14.869l-.073.244-.124.428-.018.117-.012.152c0 1.28 1.057 2.326 2.35 2.326.968.002 1.837-.593 2.185-1.496 1.766-6.931 7.88-11.658 14.769-12.015l.088-.006.156-.015.073-.004c1.168-.126 2.095-1.085 2.095-2.277l.007-.004zm-29.124 40.905c-3.831-4.997-6.285-10.912-7.117-17.153h-36.673c-4.403 0-7.985 3.542-7.985 7.898 0 4.336 3.657 7.996 7.985 7.996h24.961l-31.375 42.442c-1.177 1.492-1.775 3.104-1.775 4.803 0 4.409 3.629 8 8.088 8h41.197c4.406 0 7.988-3.591 7.988-8 0-4.355-3.582-7.898-7.988-7.898h-25.457l28.152-38.088zm-51.98 79.966h2.578v-15.991h-2.578v15.991zm5.007-8.244c-.269.785-.403 1.611-.394 2.441 0 .896.131 1.718.394 2.467.263.742.648 1.387 1.153 1.924.504.534 1.124.958 1.854 1.263.73.307 1.562.46 2.496.46.934 0 1.766-.152 2.496-.46.734-.307 1.352-.73 1.858-1.263.513-.556.906-1.212 1.153-1.927.263-.745.394-1.568.394-2.464.008-.83-.125-1.656-.394-2.441-.248-.715-.641-1.371-1.153-1.927-.522-.548-1.155-.979-1.857-1.263-.73-.307-1.562-.458-2.496-.458-.934 0-1.766.158-2.496.464-.73.304-1.346.727-1.854 1.264-.501.54-.891 1.182-1.153 1.927l-.001-.007zm2.182 2.441c0-.492.063-.984.193-1.474.116-.471.319-.917.599-1.314.274-.382.629-.699 1.039-.927.456-.249.97-.373 1.489-.361.569 0 1.066.121 1.489.361.423.238.768.546 1.036.928.277.38.476.818.601 1.311.256.974.256 1.997 0 2.971-.118.471-.321.916-.599 1.314-.57.834-1.523 1.323-2.533 1.299-1.009.025-1.961-.465-2.528-1.299-.276-.398-.479-.842-.599-1.311-.129-.486-.195-.986-.194-1.489l.006-.009zm10.999-2.307c-.246.79-.369 1.613-.365 2.441 0 .851.123 1.642.371 2.375.248.733.613 1.368 1.098 1.898.494.541 1.099.969 1.774 1.255.701.307 1.511.457 2.431.457 1.504 0 2.715-.399 3.628-1.197.912-.796 1.489-1.95 1.73-3.46h-2.577c-.123.836-.426 1.486-.917 1.947-.489.463-1.109.698-1.864.698-.561 0-1.034-.114-1.426-.35-.386-.225-.715-.534-.964-.905-.254-.39-.437-.822-.54-1.276-.112-.469-.168-.949-.168-1.431 0-.882.105-1.596.315-2.139.204-.545.472-.972.788-1.276.321-.307.66-.514 1.039-.628.375-.112.73-.168 1.061-.168.721 0 1.32.184 1.796.55.476.365.766.905.872 1.62h2.577c-.063-.715-.244-1.334-.546-1.857-.291-.511-.688-.954-1.165-1.299-.492-.352-1.044-.613-1.628-.771-.629-.175-1.28-.262-1.933-.258-.964 0-1.801.161-2.517.482-.689.301-1.302.752-1.796 1.32-.488.561-.847 1.222-1.091 1.981l.016-.01zm12.4 3.292c-.263.447-.394 1.031-.394 1.749 0 .566.108 1.063.326 1.489.219.423.511.774.879 1.051.368.277.796.488 1.277.628.482.14.984.212 1.514.212.731-.005 1.458-.118 2.156-.336.707-.2 1.355-.568 1.889-1.073.102.523.33.886.676 1.095.347.212.784.314 1.314.314l.382-.02c.301-.032.599-.089.891-.169l.35-.099v-1.769c-.118.027-.239.042-.361.044h-.274c-.241 0-.401-.067-.486-.201-.083-.134-.124-.361-.124-.672v-5.956c0-.613-.136-1.133-.409-1.559-.272-.425-.64-.782-1.073-1.041-.465-.275-.974-.469-1.504-.575-.557-.118-1.124-.178-1.693-.178-.638 0-1.274.06-1.901.18-.587.107-1.149.32-1.66.628-.489.297-.903.701-1.212 1.182-.314.496-.496 1.117-.54 1.861h2.575c.061-.628.324-1.086.791-1.387.467-.298 1.06-.448 1.784-.448.257 0 .528.02.813.055.288.041.546.117.78.228.234.109.429.272.588.482.165.234.249.516.239.803 0 .375-.095.657-.283.841-.216.203-.481.346-.769.413-.367.098-.742.162-1.121.19-.42.039-.867.102-1.333.19-.54.061-1.08.146-1.618.258-.508.103-.997.288-1.445.549-.432.254-.791.617-1.041 1.051l.016-.007zm2.18 1.635c0-.328.058-.607.169-.839.106-.221.265-.413.463-.559.207-.148.437-.262.68-.336.255-.088.518-.146.791-.19.568-.107 1.14-.188 1.715-.242.574-.051 1.055-.204 1.448-.46v1.904c0 .404-.099.745-.295 1.022-.196.274-.447.506-.736.68-.292.182-.607.307-.934.385-.305.072-.617.109-.93.112-.228 0-.482-.02-.759-.064-.266-.04-.525-.119-.768-.234-.23-.11-.434-.267-.599-.461-.169-.199-.259-.454-.253-.715l.006-.003zm10.657 3.182h2.578v-15.991h-2.572v15.991h-.006zm13.612-3.718h-2.578c.015.686.158 1.279.42 1.781.263.499.625.917 1.086 1.251.457.336.999.588 1.625.752.628.165 1.305.245 2.044.245.603 0 1.212-.069 1.831-.201.616-.134 1.178-.35 1.683-.65.507-.298.92-.686 1.232-1.162.321-.473.477-1.054.477-1.743 0-.566-.108-1.045-.327-1.434-.213-.379-.507-.707-.861-.959-.37-.262-.777-.466-1.209-.606-.452-.15-.911-.277-1.377-.38-.466-.101-.933-.199-1.401-.292-.412-.078-.817-.187-1.212-.326-.314-.104-.606-.268-.858-.482-.217-.191-.338-.47-.33-.759-.01-.228.072-.451.226-.619.157-.158.346-.28.555-.356.219-.083.453-.139.701-.169.248-.029.461-.044.642-.044.574 0 1.08.107 1.526.314.447.209.73.62.847 1.232h2.695c-.077-.642-.26-1.19-.555-1.647-.284-.446-.662-.824-1.107-1.109-.46-.287-.965-.495-1.493-.613-.568-.128-1.149-.192-1.731-.19-.558.002-1.115.054-1.664.153-.554.097-1.088.283-1.582.552-.463.253-.864.605-1.175 1.031-.307.423-.461.949-.461 1.577 0 .584.105 1.07.314 1.469.212.394.496.715.847.969.356.254.755.455 1.197.604.445.15.909.277 1.393.38.467.107.93.204 1.38.292.453.088.854.199 1.212.326.35.128.642.292.869.505.224.209.354.5.361.806.015.327-.064.593-.238.796-.18.206-.41.364-.667.458-.282.105-.575.176-.873.212-.307.036-.584.058-.823.058-.696 0-1.291-.15-1.788-.453-.496-.296-.784-.818-.857-1.562l.009-.007zm9.489-4.401c-.266.751-.399 1.543-.394 2.34 0 .895.12 1.718.371 2.463.248.749.619 1.387 1.107 1.927.501.543 1.113.972 1.796 1.255.712.296 1.524.445 2.444.445.632 0 1.241-.085 1.819-.257.581-.171 1.104-.423 1.571-.759.978-.702 1.655-1.746 1.898-2.924h-2.438c-.229.642-.574 1.124-1.032 1.445-.458.321-1.066.482-1.819.482-.54 0-1.012-.088-1.401-.277-.39-.19-.715-.438-.974-.749-.262-.325-.458-.698-.578-1.098-.129-.421-.193-.859-.193-1.299h8.594c.105-.843.048-1.697-.169-2.518-.204-.783-.562-1.517-1.051-2.161-.488-.633-1.109-1.15-1.82-1.514-.733-.38-1.558-.569-2.476-.569-.872 0-1.657.164-2.35.492-.677.316-1.281.77-1.772 1.333-.493.562-.87 1.212-1.133 1.949l.003-.006zm2.18 1.311c.011-.416.099-.825.26-1.209.161-.375.371-.701.636-.975.263-.277.58-.493.949-.65.39-.162.809-.242 1.231-.236.438 0 .832.088 1.185.258.35.172.657.394.905.672.245.277.444.603.584.974.146.375.231.764.263 1.168h-6.015l.001-.001zm10.2 1.991c-.263.447-.394 1.031-.394 1.749 0 .566.111 1.063.328 1.489.219.423.514.774.882 1.051.369.277.794.488 1.276.628s.987.212 1.515.212c.732-.005 1.46-.118 2.159-.336.707-.201 1.355-.569 1.891-1.073.105.523.331.886.677 1.095.35.212.782.314 1.314.314l.38-.02c.302-.032.602-.089.895-.169l.35-.099v-1.769c-.136.029-.257.044-.362.044h-.272c-.241 0-.403-.067-.482-.201-.088-.134-.127-.361-.127-.672v-5.956c0-.613-.136-1.133-.409-1.559-.273-.425-.64-.781-1.073-1.041-.466-.274-.974-.469-1.504-.575-.559-.119-1.128-.179-1.699-.178-.637 0-1.272.06-1.898.18-.587.107-1.15.32-1.661.628-.488.296-.902.701-1.209 1.182-.317.496-.496 1.117-.545 1.861h2.578c.058-.628.326-1.086.793-1.387.467-.298 1.061-.448 1.785-.448.254 0 .526.02.813.055.288.041.547.117.778.228.234.109.429.272.588.482.165.234.248.517.236.803 0 .375-.092.657-.28.841-.216.202-.48.344-.768.413-.366.098-.74.161-1.118.19-.423.039-.869.102-1.336.19-.54.061-1.08.146-1.615.258-.511.102-1.001.288-1.451.549-.432.255-.79.617-1.041 1.051l.003-.007zm2.184 1.635c0-.328.058-.607.166-.839.117-.231.267-.418.467-.559.206-.147.433-.26.674-.336.259-.083.524-.147.793-.19.568-.107 1.141-.188 1.717-.242.569-.051 1.058-.204 1.451-.46v1.904c0 .404-.099.745-.295 1.022-.196.274-.446.506-.734.68-.292.182-.61.307-.942.385-.303.071-.614.109-.926.112-.254-.002-.508-.023-.759-.064-.266-.04-.525-.119-.768-.234-.23-.109-.435-.266-.599-.461-.167-.2-.256-.455-.248-.715l.001-.003zm13.012-8.397h-2.422v11.577h2.575v-5.507c0-.642.085-1.212.248-1.702.168-.496.394-.908.679-1.244.274-.326.618-.585 1.007-.759.388-.173.809-.261 1.234-.26.18 0 .365.012.552.032l.555.073v-2.463l-.35-.044c-.207-.017-.414-.024-.622-.022-.394 0-.78.073-1.153.222-.729.289-1.361.779-1.822 1.413-.207.274-.358.587-.442.92h-.044v-2.239l.006.003zm5.343 3.47c-.247.79-.369 1.613-.362 2.441-.008.807.118 1.609.372 2.375.248.737.613 1.368 1.095 1.898.482.53 1.074.949 1.774 1.255.701.307 1.514.457 2.432.457 1.507 0 2.715-.399 3.629-1.197.912-.796 1.489-1.95 1.73-3.46h-2.58c-.12.836-.423 1.486-.914 1.947-.492.463-1.109.698-1.869.698-.555 0-1.032-.114-1.422-.35-.386-.224-.716-.534-.964-.905-.254-.39-.437-.822-.54-1.276-.111-.469-.168-.949-.171-1.431 0-.882.102-1.596.315-2.139.212-.545.474-.972.791-1.276.29-.291.647-.507 1.039-.628.377-.112.73-.168 1.061-.168.723 0 1.323.184 1.796.55.474.365.766.905.87 1.62h2.578c-.061-.715-.242-1.334-.545-1.857-.291-.511-.688-.954-1.165-1.299-.492-.353-1.044-.614-1.629-.771-.629-.176-1.28-.263-1.933-.258-.964 0-1.804.161-2.521.482-.715.321-1.314.762-1.796 1.32-.493.58-.862 1.254-1.085 1.981l.01-.01zm15.182-7.883h-2.58v15.991h2.577v-6.832c0-.416.067-.813.204-1.182.124-.358.315-.69.561-.978.242-.274.536-.492.882-.648.35-.158.74-.236 1.177-.236.768 0 1.333.207 1.696.618.361.412.555 1.07.584 1.982v7.285h2.58v-7.956c0-1.314-.368-2.298-1.109-2.955-.736-.657-1.747-.985-3.028-.985-.73-.01-1.449.172-2.088.526-.628.35-1.101.788-1.416 1.314h-.044v-5.933l.004-.009zm25.453-10.599h6.734v-6.482h-6.73v6.482h-.004z" sketch:type="MSShapeGroup" fill="#D8232A"/></svg>