<svg viewBox="0 0 300 200" xmlns="http://www.w3.org/2000/svg"><path d="m0 0h300v200h-300z" fill="#cbd5e0"/><g fill="#a0aec0"><path d="m112.83 127.69a5.89 5.89 0 0 1 -5.89-5.89v-59a5.89 5.89 0 0 1 5.89-5.8h59a5.89 5.89 0 0 1 5.89 5.89v59a5.89 5.89 0 0 1 -5.89 5.89zm-2-5.89a2 2 0 0 0 2 2h59a2 2 0 0 0 2-2v-5.9h-62.96zm62.92-9.8v-49.16a2 2 0 0 0 -2-2h-59a2 2 0 0 0 -2 2v49.16h8.71l9.18-15.29a4.58 4.58 0 0 1 1.5-1.7 4.53 4.53 0 0 1 2.57-.79 4.27 4.27 0 0 1 .87.08 4.54 4.54 0 0 1 2.94 1.93l5.18 6.21 6.91-15.19c1-2.27 2.53-2.61 3.33-2.61h.1c.66 0 2.31.32 3.27 2.77l9.95 24.59zm-12.75 0-9-22.51-7.93 17.43a2 2 0 0 1 -1.52 1.13 1.18 1.18 0 0 1 -.26 0 2 2 0 0 1 -1.51-.71l-7.31-8.77c-.25-.34-.42-.41-.54-.43h-.13a.64.64 0 0 0 -.36.11.67.67 0 0 0 -.23.27l-8.05 13.48z"/><path d="m182.53 143.05a4.87 4.87 0 0 1 -.54 0l-54.79-5a2 2 0 0 1 -1.33-.7 1.94 1.94 0 0 1 -.45-1.44 2 2 0 0 1 2-1.79h.19l54.78 5h.2a2 2 0 0 0 1.94-1.77l4.64-50.88a2 2 0 0 0 -1.76-2.13l-3.98-.34a2 2 0 0 1 .19-3.92h.15l3.95.36a5.91 5.91 0 0 1 5.32 6.4l-4.64 50.86a5.88 5.88 0 0 1 -5.87 5.35zm-55.94-58.59a7.86 7.86 0 1 1 7.86-7.86 7.87 7.87 0 0 1 -7.86 7.86zm0-11.79a3.93 3.93 0 1 0 3.93 3.93 3.93 3.93 0 0 0 -3.93-3.93z"/></g></svg>