<svg xmlns="http://www.w3.org/2000/svg" xmlns:xlink="http://www.w3.org/1999/xlink"><defs><style>
    .sprite-symbol-usage {display: none;}
    .sprite-symbol-usage:target {display: inline;}
  </style><symbol viewBox="0 0 24 24" id="city"><path d="M12 11c-2.206 0-4-1.794-4-4s1.794-4 4-4 4 1.794 4 4-1.794 4-4 4zm0-7c-1.654 0-3 1.346-3 3s1.346 3 3 3 3-1.346 3-3-1.346-3-3-3z" /><path d="M11.999 21.604c-.19 0-.376-.055-.538-.158-.121-.077-.225-.182-.302-.302-1.529-2.39-6.514-10.442-6.514-13.788 0-1.961.765-3.808 2.156-5.199S10.037 0 11.999 0c4.057.001 7.356 3.301 7.356 7.356 0 3.348-4.985 11.399-6.513 13.787-.144.225-.367.38-.628.438-.071.015-.144.023-.215.023zm0-20.604c-3.504.001-6.355 2.852-6.354 6.356 0 3.075 4.864 10.917 6.355 13.248 1.491-2.33 6.355-10.172 6.355-13.248 0-3.504-2.851-6.355-6.356-6.356V.75 1z" /><path d="M12 24c-2.712 0-5.584-.19-7.684-.509C1.412 23.051 0 22.399 0 21.5c0-1.132 2.327-1.906 6.915-2.298a.6394.6394 0 0 1 .049-.002c.258 0 .469.197.492.458.011.134-.03.263-.116.365-.086.102-.207.165-.34.176-4.483.384-5.829 1.105-5.994 1.315C1.257 21.922 4.912 23 12 23c7.02 0 10.673-1.057 10.988-1.493-.187-.219-1.559-.932-6.03-1.309-.133-.011-.254-.073-.34-.176-.086-.102-.127-.231-.116-.365.022-.257.24-.458.497-.458.008 0 .038.001.046.002C21.659 19.59 24 20.364 24 21.5c0 .899-1.412 1.551-4.316 1.991-2.1.319-4.972.509-7.684.509z" /></symbol><symbol viewBox="0 0 24 24" id="cleaning"><path d="M9 5C7.622 5 6.5 3.879 6.5 2.5S7.622 0 9 0s2.5 1.121 2.5 2.5S10.379 5 9 5zm0-4c-.827 0-1.5.673-1.5 1.5S8.173 4 9 4s1.5-.673 1.5-1.5S9.827 1 9 1zM8 24c-.827 0-1.5-.673-1.5-1.5v-2c0-.276.224-.5.5-.5s.5.224.5.5v2c0 .276.224.5.5.5h2c.276 0 .5-.224.5-.5v-2c0-.276.224-.5.5-.5s.5.224.5.5v2c0 .827-.673 1.5-1.5 1.5H8z" /><path d="M17.072 23.995c-.527 0-1.006-.267-1.28-.715l-1.78-2.371c-.01-.014-.02-.028-.029-.042-.426-.709-.519-1.566-.257-2.35.111-.332.287-.645.515-.918l-1.383-1.639-.677.58c-.265.25-.626.392-1.01.392h-.043c-.404-.012-.775-.18-1.05-.471-.567-.602-.538-1.553.064-2.12.035-.033.071-.063.107-.092l.676-.579-1.031-1.222c.068.169.106.356.106.552 0 .827-.673 1.5-1.5 1.5h-2c-.145 0-.29-.009-.433-.027L5.575 18H12.5c.276 0 .5.224.5.5s-.224.5-.5.5H5c-.145 0-.282-.063-.377-.172-.095-.109-.138-.253-.118-.397l.59-4.23C3.834 13.646 3 12.384 3 11v-.5c0-1.531.783-2.953 2.063-3.78L3.666 5.064c-.086-.102-.127-.231-.116-.364.011-.133.074-.254.176-.34.09-.076.204-.118.322-.118.148 0 .287.065.382.178l1.557 1.845C6.475 6.089 6.984 6 7.5 6h2.709c2.023 0 3.809 1.363 4.341 3.315l.4 1.456c.448 1.637-.075 3.405-1.333 4.536l1.392 1.649c.165-.096.335-.174.507-.231.292-.099.597-.149.906-.149.51 0 1.011.138 1.45.4.015.009.032.02.048.033l2.386 1.789c.081.048.174.122.257.205.283.283.439.66.439 1.061 0 .401-.156.778-.44 1.061l-.657.657c-.007.009-.014.017-.021.023-.007.007-.016.015-.025.022l-1.204 1.205c-.007.009-.014.017-.021.023-.007.007-.016.015-.025.022l-.478.478c-.085.086-.183.162-.289.226-.233.14-.499.214-.77.214zm-.46-1.286c.01.014.02.028.029.042.091.152.252.243.43.243.09 0 .178-.025.256-.071.035-.021.068-.046.095-.074l.149-.149-.645-.645c-.094-.094-.146-.22-.146-.354s.052-.259.146-.354.22-.146.354-.146.259.052.354.146l.645.645.543-.543-.645-.645c-.094-.094-.146-.22-.146-.354s.052-.259.146-.354.22-.146.354-.146.259.052.354.146l.645.645.326-.326c.094-.094.146-.22.147-.354 0-.133-.052-.259-.146-.354-.029-.029-.062-.054-.096-.075-.015-.009-.032-.02-.048-.033l-2.373-1.78c-.278-.161-.595-.246-.916-.246-.2 0-.398.032-.588.097-.002.001-.004.001-.006.002-.542.182-.972.615-1.154 1.156-.167.499-.11 1.044.154 1.499l1.782 2.382zm-4.46-13.19c.224 0 .422.151.482.368l.387 1.417c.254.928-.055 1.932-.785 2.558l-1.354 1.16c-.029.023-.042.033-.054.045-.097.091-.152.215-.156.349-.004.134.044.261.135.358.092.097.216.153.349.157.143 0 .263-.047.358-.136l1.047-.898c.01-.011.02-.022.029-.03.013-.011.026-.02.038-.027l.256-.22c1.025-.876 1.458-2.283 1.102-3.584l-.4-1.457C13.172 8.061 11.783 7 10.209 7H7.5c-.271 0-.542.033-.81.098l4.99 5.915c.369-.377.516-.931.375-1.445l-.387-1.417c-.073-.266.085-.542.351-.614.043-.012.088-.018.133-.018zM5.715 7.493C4.652 8.125 4 9.259 4 10.5v.5c0 1.378 1.121 2.5 2.5 2.5h2c.276 0 .5-.224.5-.5s-.224-.5-.5-.5h-2c-.827 0-1.5-.673-1.5-1.5v-1c0-.276.224-.5.5-.5s.5.224.5.5v1c0 .276.224.5.5.5h2c.286 0 .554.081.782.22L5.715 7.493z" /></symbol><symbol viewBox="0 0 24 24" id="coffee-machine"><path d="M1.5 24C.673 24 0 23.327 0 22.5v-2c0-.827.673-1.5 1.5-1.5H2V7h-.5C.673 7 0 6.327 0 5.5v-4C0 .673.673 0 1.5 0h21c.827 0 1.5.673 1.5 1.5v4c0 .827-.673 1.5-1.5 1.5H22v1.5c0 .276-.224.5-.5.5s-.5-.224-.5-.5V7h-3c-.941 0-1.198.513-1.553 1.224-.347.695-.775 1.548-1.947 1.738V11H18c0-.551.448-1 1-1h3.5c.827 0 1.5.673 1.5 1.5s-.673 1.5-1.5 1.5H19c-.552 0-1-.448-1-1h-3.5c0 .552-.448 1-1 1h-1v.5c0 .276-.224.5-.5.5s-.5-.224-.5-.5V13h-1c-.551 0-1-.448-1-1V9.962c-1.173-.19-1.6-1.044-1.947-1.738C7.198 7.513 6.941 7 6 7H3v12h6.362C8.507 18.247 8 17.155 8 16v-.5c0-.276.224-.5.5-.5h8.25c.965 0 1.75.785 1.75 1.75s-.785 1.75-1.75 1.75c-.276 0-.5-.224-.5-.5s.224-.5.5-.5c.414 0 .75-.336.75-.75s-.336-.75-.75-.75H16c0 1.155-.508 2.247-1.362 3H21v-4.5c0-.276.224-.5.5-.5s.5.224.5.5V19h.5c.827 0 1.5.673 1.5 1.5v2c0 .827-.673 1.5-1.5 1.5h-21zm0-4c-.276 0-.5.224-.5.5v2c0 .276.224.5.5.5h21c.276 0 .5-.224.5-.5v-2c0-.276-.224-.5-.5-.5h-21zM9 16c0 1.654 1.346 3 3 3s3-1.346 3-3H9zm10-4h3.5c.276 0 .5-.224.5-.5s-.224-.5-.5-.5H19v1zm-8.5 0h3v-2h-3v2zm-9-11c-.276 0-.5.224-.5.5v4c0 .276.224.5.5.5H6c1.559 0 2.052.985 2.447 1.776C8.802 8.487 9.059 9 10 9h4c.941 0 1.198-.513 1.553-1.224C15.949 6.985 16.441 6 18 6h4.5c.276 0 .5-.224.5-.5v-4c0-.276-.224-.5-.5-.5h-21z" /><path d="M12 7.5c-1.103 0-2-.897-2-2s.897-2 2-2 2 .897 2 2-.897 2-2 2zm0-3c-.551 0-1 .449-1 1s.449 1 1 1c.552 0 1-.449 1-1s-.448-1-1-1zM4.5 5C3.673 5 3 4.327 3 3.5S3.673 2 4.5 2 6 2.673 6 3.5 5.327 5 4.5 5zm0-2c-.276 0-.5.224-.5.5s.224.5.5.5.5-.224.5-.5-.224-.5-.5-.5z" /><circle cx="17.75" cy="3.25" r=".75" /><circle cx="20.25" cy="3.25" r=".75" /></symbol><symbol viewBox="0 0 24 24" id="contract"><path d="M16.507 22.04c-.274 0-.499-.223-.5-.497-.007-1.173.169-2.335.523-3.453.009-.029.022-.06.039-.091l.629-1.132-1.017-3.678c-.009-.026-.022-.075-.033-.124-.214-.937.375-1.875 1.313-2.089.129-.029.26-.044.391-.044.326 0 .646.093.926.268.395.248.669.635.773 1.09l.061.22 2.964-5.351c.126-.228.053-.518-.167-.66l-5.402-3.535v3.575c0 .276-.224.5-.5.5h-1.691l-1.809 3.618v4.382c0 .222-.143.414-.355.479-.046.014-.095.021-.145.021-.168 0-.323-.083-.416-.223l-3-4.5c-.055-.082-.084-.178-.084-.277v-3.5H7.503c-.276 0-.5-.224-.5-.5V2.963l-5.4 3.534c-.218.143-.29.433-.164.661l2.964 5.349.066-.24c.099-.436.372-.819.767-1.068.279-.175.599-.268.926-.268.131 0 .262.015.39.044.455.104.841.378 1.09.773.248.395.328.862.224 1.317-.011.048-.024.095-.039.142l-1.01 3.658.627 1.133c.016.03.029.06.039.092.354 1.118.53 2.28.523 3.453-.002.274-.226.497-.5.497-.136-.001-.262-.053-.356-.149-.094-.095-.145-.221-.144-.354.006-1.052-.149-2.095-.462-3.099l-.7-1.268c-.064-.116-.079-.249-.044-.375l1.07-3.873c.011-.036.017-.058.022-.079.044-.194.01-.394-.096-.562-.106-.168-.271-.286-.465-.33-.055-.013-.112-.019-.167-.019-.139 0-.275.04-.395.115-.168.106-.286.271-.33.465l-.974 3.536c-.059.216-.257.367-.482.367-.045 0-.09-.006-.134-.018-.128-.035-.235-.119-.301-.235-.066-.116-.083-.251-.047-.38l.522-1.896-2.02-3.646C1.29 12.11.621 14 1.275 15.115l2.649 3.969c.055.083.084.178.084.277v2.177c0 .276-.224.5-.5.5s-.5-.224-.5-.5v-2.026l-2.58-3.867c-.946-1.612-.121-3.77.754-6.055.063-.165.126-.33.188-.495L.564 7.642c-.378-.684-.162-1.554.492-1.982l5.4-3.534c.163-.107.352-.164.546-.164.069 0 .138.007.206.021.261.056.485.209.632.432.107.164.164.353.164.548v3.075h1.004c.551 0 1 .449 1 1v3.349l2 3v-2.731c0-.155.037-.31.106-.448l1.808-3.618c.171-.341.514-.552.894-.552h1.191V2.962c0-.267.104-.518.293-.707.189-.189.44-.293.707-.293.195 0 .385.057.548.164l5.4 3.534c.656.425.874 1.296.496 1.982l-.806 1.455c.062.165.125.329.188.494.874 2.286 1.699 4.443.769 6.03l-2.594 3.891v2.026c0 .276-.224.5-.5.5s-.5-.224-.5-.5v-2.177c0-.099.029-.195.084-.277l2.663-3.993c.639-1.092-.031-2.979-.743-4.849l-2.02 3.646.522 1.895c.073.266-.083.542-.349.615-.044.012-.088.018-.133.018-.224 0-.422-.151-.482-.367l-.968-3.515c-.049-.215-.165-.379-.335-.487-.119-.075-.256-.115-.395-.115-.056 0-.112.006-.167.019-.401.091-.652.491-.561.892.005.019.01.04.017.06l1.078 3.895c.035.127.019.261-.045.377l-.703 1.265c-.313 1.004-.468 2.046-.462 3.098.001.134-.051.259-.144.354-.094.095-.219.148-.353.149h-.005z" /><path d="M14.778 20.496c-.093 0-.184-.026-.263-.075l-2.508-1.555L9.5 20.421c-.079.049-.17.075-.263.075-.174 0-.333-.088-.425-.236-.07-.114-.093-.248-.062-.378s.11-.24.223-.311l2.737-1.697c.066-.049.14-.079.219-.091.012-.002.04-.004.052-.004l.023.25.002-.25c.016 0 .076.003.092.006.07.011.142.041.206.088l2.737 1.698c.234.145.306.454.161.688-.091.148-.25.237-.424.237z" /></symbol><symbol viewBox="0 0 24 24" id="email"><path d="M5.96 18.5c-.4 0-.777-.157-1.06-.441-.283-.284-.439-.66-.439-1.061 0-.101.01-.202.031-.299L6.574 6.698c.067-.328.247-.628.506-.846l.009-.009c.013-.012.036-.028.055-.039.259-.197.572-.304.898-.304H22.5c.401 0 .777.158 1.061.444.032.025.069.057.101.104.008.011.018.03.026.047.204.266.311.579.311.906 0 .1-.01.2-.031.299L21.89 17.302c-.142.694-.76 1.198-1.468 1.198H5.96zm-.49-1.598c-.006.031-.01.064-.01.098 0 .133.052.258.146.353s.221.147.354.147h14.461c.234 0 .438-.166.488-.394 0-.002 2.073-9.973 2.073-9.973l-7.539 5.276c-.419.294-.914.449-1.431.449-.697 0-1.365-.29-1.835-.796L7.523 7.05 5.47 16.902zm7.44-5.519c.282.303.684.477 1.102.477.31 0 .606-.093.857-.269L22.143 6.5H8.377l4.533 4.883zM.5 7.5C.224 7.5 0 7.276 0 7s.224-.5.5-.5h4c.276 0 .5.224.5.5s-.224.5-.5.5h-4zM.5 10.5c-.276 0-.5-.224-.5-.5s.224-.5.5-.5h3c.276 0 .5.224.5.5s-.224.5-.5.5h-3zM.5 13.5c-.276 0-.5-.224-.5-.5s.224-.5.5-.5h2c.276 0 .5.224.5.5s-.224.5-.5.5h-2z" /></symbol><symbol viewBox="0 0 24 24" id="furniture"><path d="M17 24c-.827 0-1.5-.673-1.5-1.5 0-.468.219-.902.58-1.183-1.008-.837-2.263-1.304-3.58-1.327v1.096c.59.209 1 .774 1 1.414 0 .827-.673 1.5-1.5 1.5s-1.5-.673-1.5-1.5c0-.64.41-1.205 1-1.414V19.99c-1.316.023-2.572.49-3.579 1.327.36.281.579.715.579 1.183 0 .827-.673 1.5-1.5 1.5s-1.5-.673-1.5-1.5c0-.742.537-1.361 1.265-1.475 1.26-1.289 2.935-2.009 4.735-2.034V18H7c-.827 0-1.5-.673-1.5-1.5v-.556c-1.162-.229-2.104-1.126-2.379-2.29L2.59 11H1.5c-.551 0-1-.449-1-1C.5 8.621 1.621 7.5 3 7.5S5.5 8.622 5.5 10c0 .551-.449 1-1 1h-.89l.488 2.441c.167.707.724 1.276 1.425 1.479.095-.536.475-.985 1.006-1.161.419-.127.855-.241 1.304-.341C7.174 11.591 5.5 6.817 5.5 5.5 5.5 2.812 7.976.315 10.908.049 11.267.017 11.635 0 12 0s.733.016 1.092.049C16.023.315 18.5 2.812 18.5 5.5c0 1.319-1.674 6.092-2.333 7.919.448.099.881.212 1.292.337.539.178.922.628 1.018 1.165.701-.203 1.259-.777 1.428-1.496L20.39 11h-.89c-.552 0-1-.449-1-1 0-1.379 1.122-2.5 2.5-2.5s2.5 1.121 2.5 2.5c0 .551-.448 1-1 1h-1.09l-.527 2.637c-.278 1.177-1.22 2.077-2.382 2.307v.556c0 .827-.673 1.5-1.5 1.5h-4.5v.99c1.801.026 3.475.746 4.735 2.034.728.114 1.265.732 1.265 1.475C18.5 23.327 17.827 24 17 24zm0-2c-.276 0-.5.224-.5.5s.224.5.5.5.5-.224.5-.5-.224-.5-.5-.5zm-5 0c-.276 0-.5.224-.5.5s.224.5.5.5.5-.224.5-.5-.224-.5-.5-.5zm-5 0c-.276 0-.5.224-.5.5s.224.5.5.5.5-.224.5-.5-.224-.5-.5-.5zm4.661-8.003c-1.64 0-3.265.241-4.829.716-.197.064-.332.254-.332.471V16.5c0 .276.224.5.5.5h10c.276 0 .5-.224.5-.5v-1.316c0-.217-.138-.408-.343-.476-1.555-.472-3.17-.712-4.793-.712-.118 0-.235.001-.353.004-.124-.002-.237-.003-.35-.003zm.698-1c.937 0 1.883.077 2.814.229C16.263 10.211 17.5 6.453 17.5 5.5c0-2.193-2.06-4.234-4.498-4.455-.329-.029-.666-.044-1.002-.044-.336 0-.673.015-1.002.045C8.56 1.267 6.5 3.307 6.5 5.5c0 .955 1.237 4.712 2.327 7.725.932-.152 1.877-.229 2.812-.229.124 0 .248.001.372.004.109-.002.228-.003.348-.003zM21 8.5c-.827 0-1.5.673-1.5 1.5h3c0-.827-.673-1.5-1.5-1.5zm-18 0c-.827 0-1.5.673-1.5 1.5h3c0-.827-.673-1.5-1.5-1.5z" /></symbol><symbol viewBox="0 0 24 24" id="meeting"><path d="M4 15c-1.241 0-2.25-1.009-2.25-2.25S2.759 10.5 4 10.5s2.25 1.009 2.25 2.25S5.241 15 4 15zm0-3.5c-.689 0-1.25.561-1.25 1.25S3.311 14 4 14s1.25-.561 1.25-1.25S4.69 11.5 4 11.5zM20 15c-1.241 0-2.25-1.009-2.25-2.25S18.759 10.5 20 10.5s2.25 1.009 2.25 2.25S21.241 15 20 15zm0-3.5c-.689 0-1.25.561-1.25 1.25S19.311 14 20 14s1.25-.561 1.25-1.25-.56-1.25-1.25-1.25z" /><path d="M7.23 23c-.4 0-.777-.157-1.06-.441-.283-.284-.439-.66-.439-1.061 0-.1.01-.2.03-.299l.832-3.993c-.567-.879-1.559-1.422-2.612-1.422-.53 0-1.055.139-1.518.401-.733.415-1.272 1.121-1.479 1.937-.055.223-.255.378-.483.378-.041 0-.082-.005-.122-.015-.268-.068-.431-.341-.363-.608.273-1.079.986-2.013 1.955-2.561.613-.347 1.307-.53 2.008-.53 1.089 0 2.112.421 2.875 1.17l.991-4.758c.141-.693.759-1.197 1.468-1.198h5.375c.709.001 1.327.505 1.469 1.2l.991 4.756c.763-.749 1.786-1.17 2.875-1.17.701 0 1.395.183 2.008.53.969.548 1.682 1.482 1.956 2.561.068.267-.095.54-.362.608-.042.01-.083.015-.123.015-.229 0-.428-.155-.484-.377-.207-.816-.746-1.522-1.479-1.937-.467-.264-.992-.403-1.521-.403-.28 0-.561.038-.834.114-.735.204-1.362.667-1.775 1.31l.832 3.993c.08.392.003.793-.218 1.127-.221.334-.559.562-.951.642-.101.021-.202.031-.302.031H7.23zm2.083-12c-.236 0-.442.168-.489.4L6.741 21.402c-.006.031-.01.064-.01.097 0 .134.052.259.146.354.095.095.22.147.354.147h9.54c.033 0 .067-.003.099-.01.131-.027.243-.103.317-.214.073-.111.099-.245.073-.376l-2.082-9.998c-.049-.233-.255-.402-.491-.402H9.313zM12 5.5c-1.241 0-2.25-1.009-2.25-2.25S10.76 1 12 1c1.241 0 2.25 1.009 2.25 2.25S13.241 5.5 12 5.5zM12 2c-.689 0-1.25.561-1.25 1.25S11.311 4.5 12 4.5s1.25-.561 1.25-1.25S12.69 2 12 2z" /><path d="M8.501 9c-.042 0-.084-.005-.126-.016-.128-.032-.236-.114-.305-.229s-.088-.25-.054-.379c.372-1.459 1.51-2.596 2.968-2.968.336-.086.68-.129 1.023-.129.732 0 1.455.2 2.092.578.944.561 1.614 1.456 1.885 2.52.033.129.014.264-.054.379s-.177.196-.306.229c-.04.01-.082.015-.124.015-.229 0-.428-.155-.484-.376-.206-.805-.712-1.483-1.427-1.907-.482-.286-1.029-.437-1.583-.437-.259 0-.52.033-.775.098-1.104.282-1.965 1.142-2.247 2.247-.056.22-.255.375-.483.375zM10.077 21c-.551 0-1-.448-1-1 0-.048.003-.095.01-.143l.357-2.499c.07-.489.496-.858.99-.858h3.132c.494 0 .919.369.99.858l.357 2.5c.038.264-.03.527-.189.741-.161.214-.395.353-.659.391-.046.007-.094.01-.142.01h-3.846zm0-1h3.846l-.357-2.5h-3.131l-.358 2.5z" /></symbol><symbol viewBox="0 0 24 24" id="people"><path d="M14.75 24c-.258 0-.477-.201-.498-.458l-.343-4.115c-.011-.133.03-.262.116-.365.086-.102.207-.164.34-.175a.5831.5831 0 0 1 .047-.002c.255 0 .472.202.493.459L15.21 23h3.08l.462-5.542c.021-.257.24-.458.498-.458h2v-3c0-2.481-2.019-4.5-4.5-4.5-.967 0-1.926.32-2.7.9-.087.065-.191.1-.3.1-.157 0-.306-.075-.4-.2-.08-.107-.114-.238-.095-.371.019-.132.088-.249.195-.329.946-.709 2.117-1.1 3.3-1.1 3.033 0 5.5 2.467 5.5 5.5v3.5c0 .276-.224.5-.5.5h-2.04l-.462 5.542c-.021.257-.24.458-.498.458h-4zM16.75 8c-2.206 0-4-1.794-4-4s1.794-4 4-4 4 1.794 4 4-1.794 4-4 4zm0-7c-1.654 0-3 1.346-3 3s1.346 3 3 3 3-1.346 3-3-1.346-3-3-3zM5.75 24c-.258 0-.477-.201-.498-.458L4.79 18H2.75c-.276 0-.5-.224-.5-.5V14c0-3.033 2.467-5.5 5.5-5.5s5.5 2.467 5.5 5.5v3.5c0 .276-.224.5-.5.5h-2.04l-.462 5.542c-.021.257-.24.458-.498.458h-4zm3.54-1l.462-5.542c.021-.257.24-.458.498-.458h2v-3c0-2.481-2.019-4.5-4.5-4.5s-4.5 2.019-4.5 4.5v3h2c.258 0 .477.201.498.458L6.21 23h3.08zM7.75 8c-2.206 0-4-1.794-4-4s1.794-4 4-4 4 1.794 4 4-1.794 4-4 4zm0-7c-1.654 0-3 1.346-3 3s1.346 3 3 3 3-1.346 3-3-1.346-3-3-3z" /></symbol><symbol viewBox="0 0 24 24" id="printer"><path d="M1.5 24.001c-.827 0-1.5-.673-1.5-1.5v-17c0-.827.673-1.5 1.5-1.5h1.442L21.395.011c.035-.008.07-.011.104-.011.234 0 .44.166.49.394.058.27-.114.536-.383.595L7.674 4.001H22.5c.827 0 1.5.673 1.5 1.5v2c0 .827-.673 1.5-1.5 1.5H14v5h3.293l1.854-1.854c.094-.094.22-.146.354-.146h3c.827 0 1.5.673 1.5 1.5v9c0 .827-.673 1.5-1.5 1.5H1.5zm-.5-1.5c0 .276.224.5.5.5h21c.276 0 .5-.224.5-.5V21H1v1.501zm22-2.502V13.5c0-.276-.224-.5-.5-.5h-2.793l-1.854 1.854c-.094.094-.22.146-.354.146h-4c-.008 0-.016 0-.024-.001H11.5c-.276 0-.5-.224-.5-.5s.224-.5.5-.5H13V9.001h-1v.5c0 .827-.673 1.5-1.5 1.5h-6c-.827 0-1.5-.673-1.5-1.5v-.5H1V20h22zM4 9.501c0 .276.224.5.5.5h6c.276 0 .5-.224.5-.5v-4.5H4v4.5zm18.5-1.5c.276 0 .5-.224.5-.5v-2c0-.276-.224-.5-.5-.5H12v3h10.5zm-19.5 0v-3H1.5c-.276 0-.5.224-.5.5v2.5h2z" /><path d="M5.5 7c-.276 0-.5-.225-.5-.5s.224-.5.5-.5h1c.276 0 .5.224.5.5s-.224.5-.5.5h-1zM8.5 7c-.276 0-.5-.225-.5-.5s.224-.5.5-.5h1c.276 0 .5.224.5.5s-.224.5-.5.5h-1zM8.5 9c-.276 0-.5-.225-.5-.5s.224-.5.5-.5h1c.276 0 .5.224.5.5s-.224.5-.5.5h-1zM5.5 9c-.276 0-.5-.225-.5-.5s.224-.5.5-.5h1c.276 0 .5.224.5.5s-.224.5-.5.5h-1z" /></symbol><symbol viewBox="0 0 24 24" id="sofa"><path d="M21.5 19.5c-.276 0-.5-.224-.5-.5v-1.5H3V19c0 .276-.224.5-.5.5S2 19.276 2 19v-1.551C.845 17.215 0 16.199 0 15v-4c0-1.103.897-2 2-2 0-2.481 2.019-4.5 4.5-4.5h11C19.981 4.5 22 6.519 22 9c1.103 0 2 .897 2 2v4c0 1.199-.845 2.215-2 2.449V19c0 .276-.224.5-.5.5zM2 10c-.551 0-1 .449-1 1v4c0 .827.673 1.5 1.5 1.5h19c.827 0 1.5-.673 1.5-1.5v-4c0-.551-.448-1-1-1s-1 .449-1 1v1c0 .827-.673 1.5-1.5 1.5h-15c-.827 0-1.5-.673-1.5-1.5v-1c0-.551-.449-1-1-1zm17.5 2.5c.276 0 .5-.224.5-.5v-1c0-.711.388-1.374 1-1.729V9c0-1.93-1.57-3.5-3.5-3.5h-5v7h7zM3 9.271c.612.355 1 1.018 1 1.729v1c0 .276.224.5.5.5h7v-7h-5C4.57 5.5 3 7.07 3 9v.271z" /></symbol><symbol viewBox="0 0 24 24" id="surface"><path d="M20.5 24c-.827 0-1.5-.673-1.5-1.5V22H5v.5c0 .827-.673 1.5-1.5 1.5h-2C.673 24 0 23.327 0 22.5v-2c0-.827.673-1.5 1.5-1.5H2V5h-.5C.673 5 0 4.327 0 3.5v-2C0 .673.673 0 1.5 0h2C4.327 0 5 .673 5 1.5V2h14v-.5c0-.827.673-1.5 1.5-1.5h2c.827 0 1.5.673 1.5 1.5v2c0 .827-.673 1.5-1.5 1.5H22v14h.5c.827 0 1.5.673 1.5 1.5v2c0 .827-.673 1.5-1.5 1.5h-2zm0-4c-.276 0-.5.224-.5.5v2c0 .276.224.5.5.5h2c.276 0 .5-.224.5-.5v-2c0-.276-.224-.5-.5-.5h-2zm-19 0c-.276 0-.5.224-.5.5v2c0 .276.224.5.5.5h2c.276 0 .5-.224.5-.5v-2c0-.276-.224-.5-.5-.5h-2zM19 21v-.5c0-.827.673-1.5 1.5-1.5h.5V5h-.5c-.827 0-1.5-.673-1.5-1.5V3H5v.5C5 4.327 4.327 5 3.5 5H3v14h.5c.827 0 1.5.673 1.5 1.5v.5h14zm1.5-20c-.276 0-.5.224-.5.5v2c0 .276.224.5.5.5h2c.276 0 .5-.224.5-.5v-2c0-.276-.224-.5-.5-.5h-2zm-19 0c-.276 0-.5.224-.5.5v2c0 .276.224.5.5.5h2c.276 0 .5-.224.5-.5v-2c0-.276-.224-.5-.5-.5h-2z" /></symbol><symbol viewBox="0 0 24 24" id="wifi"><path d="M22 7.11c-.134 0-.259-.052-.354-.146C19.1 4.417 15.71 3.015 12.1 3.015c-3.61 0-7 1.402-9.546 3.947-.023.024-.049.045-.077.064-.082.055-.178.084-.277.084-.168 0-.323-.083-.416-.223-.135-.202-.106-.47.069-.637C4.583 3.521 8.224 2.016 12.1 2.016c3.878 0 7.519 1.506 10.254 4.241.195.195.195.512 0 .707-.095.094-.221.146-.354.146z" /><path d="M5.03 10.94c-.134 0-.259-.052-.354-.146-.195-.195-.195-.512 0-.707 1.983-1.983 4.62-3.075 7.425-3.075 2.805 0 5.442 1.092 7.424 3.075.195.195.195.512 0 .707-.094.094-.22.146-.354.146s-.259-.052-.354-.146C17.023 9 14.637 8.012 12.1 8.012S7.177 9 5.382 10.794c-.093.094-.219.146-.352.146zM16.344 14.767c-.125 0-.243-.046-.336-.129-.006-.005-.013-.011-.019-.017-1.037-1.037-2.419-1.608-3.89-1.608-.175 0-.352.008-.527.025-1.267.121-2.461.683-3.36 1.583-.048.048-.104.085-.166.11-.06.025-.124.037-.189.037-.134 0-.259-.052-.354-.146s-.146-.22-.146-.354.052-.259.146-.354c1.226-1.226 2.858-1.901 4.596-1.901 1.74 0 3.372.675 4.598 1.901.094.094.146.22.146.354s-.052.259-.146.354-.22.145-.353.145zM12.1 22.01c-1.379 0-2.5-1.122-2.5-2.5s1.121-2.5 2.5-2.5 2.5 1.122 2.5 2.5-1.122 2.5-2.5 2.5zm0-4c-.827 0-1.5.673-1.5 1.5s.673 1.5 1.5 1.5 1.5-.673 1.5-1.5-.673-1.5-1.5-1.5z" /></symbol></defs><use id="city-usage" xlink:href="#city" class="sprite-symbol-usage" /><use id="cleaning-usage" xlink:href="#cleaning" class="sprite-symbol-usage" /><use id="coffee-machine-usage" xlink:href="#coffee-machine" class="sprite-symbol-usage" /><use id="contract-usage" xlink:href="#contract" class="sprite-symbol-usage" /><use id="email-usage" xlink:href="#email" class="sprite-symbol-usage" /><use id="furniture-usage" xlink:href="#furniture" class="sprite-symbol-usage" /><use id="meeting-usage" xlink:href="#meeting" class="sprite-symbol-usage" /><use id="people-usage" xlink:href="#people" class="sprite-symbol-usage" /><use id="printer-usage" xlink:href="#printer" class="sprite-symbol-usage" /><use id="sofa-usage" xlink:href="#sofa" class="sprite-symbol-usage" /><use id="surface-usage" xlink:href="#surface" class="sprite-symbol-usage" /><use id="wifi-usage" xlink:href="#wifi" class="sprite-symbol-usage" /></svg>