<svg xmlns="http://www.w3.org/2000/svg" viewBox="0 0 24 24"><path d="M12 11c-2.206 0-4-1.794-4-4s1.794-4 4-4 4 1.794 4 4-1.794 4-4 4zm0-7c-1.654 0-3 1.346-3 3s1.346 3 3 3 3-1.346 3-3-1.346-3-3-3z"/><path d="M11.999 21.604c-.19 0-.376-.055-.538-.158-.121-.077-.225-.182-.302-.302-1.529-2.39-6.514-10.442-6.514-13.788 0-1.961.765-3.808 2.156-5.199S10.037 0 11.999 0c4.057.001 7.356 3.301 7.356 7.356 0 3.348-4.985 11.399-6.513 13.787-.144.225-.367.38-.628.438-.071.015-.144.023-.215.023zm0-20.604c-3.504.001-6.355 2.852-6.354 6.356 0 3.075 4.864 10.917 6.355 13.248 1.491-2.33 6.355-10.172 6.355-13.248 0-3.504-2.851-6.355-6.356-6.356V.75 1z"/><path d="M12 24c-2.712 0-5.584-.19-7.684-.509C1.412 23.051 0 22.399 0 21.5c0-1.132 2.327-1.906 6.915-2.298a.6394.6394 0 0 1 .049-.002c.258 0 .469.197.492.458.011.134-.03.263-.116.365-.086.102-.207.165-.34.176-4.483.384-5.829 1.105-5.994 1.315C1.257 21.922 4.912 23 12 23c7.02 0 10.673-1.057 10.988-1.493-.187-.219-1.559-.932-6.03-1.309-.133-.011-.254-.073-.34-.176-.086-.102-.127-.231-.116-.365.022-.257.24-.458.497-.458.008 0 .038.001.046.002C21.659 19.59 24 20.364 24 21.5c0 .899-1.412 1.551-4.316 1.991-2.1.319-4.972.509-7.684.509z"/></svg>