<svg xmlns="http://www.w3.org/2000/svg" viewBox="0 0 24 24"><path d="M9 5C7.622 5 6.5 3.879 6.5 2.5S7.622 0 9 0s2.5 1.121 2.5 2.5S10.379 5 9 5zm0-4c-.827 0-1.5.673-1.5 1.5S8.173 4 9 4s1.5-.673 1.5-1.5S9.827 1 9 1zM8 24c-.827 0-1.5-.673-1.5-1.5v-2c0-.276.224-.5.5-.5s.5.224.5.5v2c0 .276.224.5.5.5h2c.276 0 .5-.224.5-.5v-2c0-.276.224-.5.5-.5s.5.224.5.5v2c0 .827-.673 1.5-1.5 1.5H8z"/><path d="M17.072 23.995c-.527 0-1.006-.267-1.28-.715l-1.78-2.371c-.01-.014-.02-.028-.029-.042-.426-.709-.519-1.566-.257-2.35.111-.332.287-.645.515-.918l-1.383-1.639-.677.58c-.265.25-.626.392-1.01.392h-.043c-.404-.012-.775-.18-1.05-.471-.567-.602-.538-1.553.064-2.12.035-.033.071-.063.107-.092l.676-.579-1.031-1.222c.068.169.106.356.106.552 0 .827-.673 1.5-1.5 1.5h-2c-.145 0-.29-.009-.433-.027L5.575 18H12.5c.276 0 .5.224.5.5s-.224.5-.5.5H5c-.145 0-.282-.063-.377-.172-.095-.109-.138-.253-.118-.397l.59-4.23C3.834 13.646 3 12.384 3 11v-.5c0-1.531.783-2.953 2.063-3.78L3.666 5.064c-.086-.102-.127-.231-.116-.364.011-.133.074-.254.176-.34.09-.076.204-.118.322-.118.148 0 .287.065.382.178l1.557 1.845C6.475 6.089 6.984 6 7.5 6h2.709c2.023 0 3.809 1.363 4.341 3.315l.4 1.456c.448 1.637-.075 3.405-1.333 4.536l1.392 1.649c.165-.096.335-.174.507-.231.292-.099.597-.149.906-.149.51 0 1.011.138 1.45.4.015.009.032.02.048.033l2.386 1.789c.081.048.174.122.257.205.283.283.439.66.439 1.061 0 .401-.156.778-.44 1.061l-.657.657c-.007.009-.014.017-.021.023-.007.007-.016.015-.025.022l-1.204 1.205c-.007.009-.014.017-.021.023-.007.007-.016.015-.025.022l-.478.478c-.085.086-.183.162-.289.226-.233.14-.499.214-.77.214zm-.46-1.286c.01.014.02.028.029.042.091.152.252.243.43.243.09 0 .178-.025.256-.071.035-.021.068-.046.095-.074l.149-.149-.645-.645c-.094-.094-.146-.22-.146-.354s.052-.259.146-.354.22-.146.354-.146.259.052.354.146l.645.645.543-.543-.645-.645c-.094-.094-.146-.22-.146-.354s.052-.259.146-.354.22-.146.354-.146.259.052.354.146l.645.645.326-.326c.094-.094.146-.22.147-.354 0-.133-.052-.259-.146-.354-.029-.029-.062-.054-.096-.075-.015-.009-.032-.02-.048-.033l-2.373-1.78c-.278-.161-.595-.246-.916-.246-.2 0-.398.032-.588.097-.002.001-.004.001-.006.002-.542.182-.972.615-1.154 1.156-.167.499-.11 1.044.154 1.499l1.782 2.382zm-4.46-13.19c.224 0 .422.151.482.368l.387 1.417c.254.928-.055 1.932-.785 2.558l-1.354 1.16c-.029.023-.042.033-.054.045-.097.091-.152.215-.156.349-.004.134.044.261.135.358.092.097.216.153.349.157.143 0 .263-.047.358-.136l1.047-.898c.01-.011.02-.022.029-.03.013-.011.026-.02.038-.027l.256-.22c1.025-.876 1.458-2.283 1.102-3.584l-.4-1.457C13.172 8.061 11.783 7 10.209 7H7.5c-.271 0-.542.033-.81.098l4.99 5.915c.369-.377.516-.931.375-1.445l-.387-1.417c-.073-.266.085-.542.351-.614.043-.012.088-.018.133-.018zM5.715 7.493C4.652 8.125 4 9.259 4 10.5v.5c0 1.378 1.121 2.5 2.5 2.5h2c.276 0 .5-.224.5-.5s-.224-.5-.5-.5h-2c-.827 0-1.5-.673-1.5-1.5v-1c0-.276.224-.5.5-.5s.5.224.5.5v1c0 .276.224.5.5.5h2c.286 0 .554.081.782.22L5.715 7.493z"/></svg>