<svg xmlns="http://www.w3.org/2000/svg" viewBox="0 0 24 24"><path d="M1.5 24C.673 24 0 23.327 0 22.5v-2c0-.827.673-1.5 1.5-1.5H2V7h-.5C.673 7 0 6.327 0 5.5v-4C0 .673.673 0 1.5 0h21c.827 0 1.5.673 1.5 1.5v4c0 .827-.673 1.5-1.5 1.5H22v1.5c0 .276-.224.5-.5.5s-.5-.224-.5-.5V7h-3c-.941 0-1.198.513-1.553 1.224-.347.695-.775 1.548-1.947 1.738V11H18c0-.551.448-1 1-1h3.5c.827 0 1.5.673 1.5 1.5s-.673 1.5-1.5 1.5H19c-.552 0-1-.448-1-1h-3.5c0 .552-.448 1-1 1h-1v.5c0 .276-.224.5-.5.5s-.5-.224-.5-.5V13h-1c-.551 0-1-.448-1-1V9.962c-1.173-.19-1.6-1.044-1.947-1.738C7.198 7.513 6.941 7 6 7H3v12h6.362C8.507 18.247 8 17.155 8 16v-.5c0-.276.224-.5.5-.5h8.25c.965 0 1.75.785 1.75 1.75s-.785 1.75-1.75 1.75c-.276 0-.5-.224-.5-.5s.224-.5.5-.5c.414 0 .75-.336.75-.75s-.336-.75-.75-.75H16c0 1.155-.508 2.247-1.362 3H21v-4.5c0-.276.224-.5.5-.5s.5.224.5.5V19h.5c.827 0 1.5.673 1.5 1.5v2c0 .827-.673 1.5-1.5 1.5h-21zm0-4c-.276 0-.5.224-.5.5v2c0 .276.224.5.5.5h21c.276 0 .5-.224.5-.5v-2c0-.276-.224-.5-.5-.5h-21zM9 16c0 1.654 1.346 3 3 3s3-1.346 3-3H9zm10-4h3.5c.276 0 .5-.224.5-.5s-.224-.5-.5-.5H19v1zm-8.5 0h3v-2h-3v2zm-9-11c-.276 0-.5.224-.5.5v4c0 .276.224.5.5.5H6c1.559 0 2.052.985 2.447 1.776C8.802 8.487 9.059 9 10 9h4c.941 0 1.198-.513 1.553-1.224C15.949 6.985 16.441 6 18 6h4.5c.276 0 .5-.224.5-.5v-4c0-.276-.224-.5-.5-.5h-21z"/><path d="M12 7.5c-1.103 0-2-.897-2-2s.897-2 2-2 2 .897 2 2-.897 2-2 2zm0-3c-.551 0-1 .449-1 1s.449 1 1 1c.552 0 1-.449 1-1s-.448-1-1-1zM4.5 5C3.673 5 3 4.327 3 3.5S3.673 2 4.5 2 6 2.673 6 3.5 5.327 5 4.5 5zm0-2c-.276 0-.5.224-.5.5s.224.5.5.5.5-.224.5-.5-.224-.5-.5-.5z"/><circle cx="17.75" cy="3.25" r=".75"/><circle cx="20.25" cy="3.25" r=".75"/></svg>