<svg xmlns="http://www.w3.org/2000/svg" viewBox="0 0 24 24"><path d="M16.507 22.04c-.274 0-.499-.223-.5-.497-.007-1.173.169-2.335.523-3.453.009-.029.022-.06.039-.091l.629-1.132-1.017-3.678c-.009-.026-.022-.075-.033-.124-.214-.937.375-1.875 1.313-2.089.129-.029.26-.044.391-.044.326 0 .646.093.926.268.395.248.669.635.773 1.09l.061.22 2.964-5.351c.126-.228.053-.518-.167-.66l-5.402-3.535v3.575c0 .276-.224.5-.5.5h-1.691l-1.809 3.618v4.382c0 .222-.143.414-.355.479-.046.014-.095.021-.145.021-.168 0-.323-.083-.416-.223l-3-4.5c-.055-.082-.084-.178-.084-.277v-3.5H7.503c-.276 0-.5-.224-.5-.5V2.963l-5.4 3.534c-.218.143-.29.433-.164.661l2.964 5.349.066-.24c.099-.436.372-.819.767-1.068.279-.175.599-.268.926-.268.131 0 .262.015.39.044.455.104.841.378 1.09.773.248.395.328.862.224 1.317-.011.048-.024.095-.039.142l-1.01 3.658.627 1.133c.016.03.029.06.039.092.354 1.118.53 2.28.523 3.453-.002.274-.226.497-.5.497-.136-.001-.262-.053-.356-.149-.094-.095-.145-.221-.144-.354.006-1.052-.149-2.095-.462-3.099l-.7-1.268c-.064-.116-.079-.249-.044-.375l1.07-3.873c.011-.036.017-.058.022-.079.044-.194.01-.394-.096-.562-.106-.168-.271-.286-.465-.33-.055-.013-.112-.019-.167-.019-.139 0-.275.04-.395.115-.168.106-.286.271-.33.465l-.974 3.536c-.059.216-.257.367-.482.367-.045 0-.09-.006-.134-.018-.128-.035-.235-.119-.301-.235-.066-.116-.083-.251-.047-.38l.522-1.896-2.02-3.646C1.29 12.11.621 14 1.275 15.115l2.649 3.969c.055.083.084.178.084.277v2.177c0 .276-.224.5-.5.5s-.5-.224-.5-.5v-2.026l-2.58-3.867c-.946-1.612-.121-3.77.754-6.055.063-.165.126-.33.188-.495L.564 7.642c-.378-.684-.162-1.554.492-1.982l5.4-3.534c.163-.107.352-.164.546-.164.069 0 .138.007.206.021.261.056.485.209.632.432.107.164.164.353.164.548v3.075h1.004c.551 0 1 .449 1 1v3.349l2 3v-2.731c0-.155.037-.31.106-.448l1.808-3.618c.171-.341.514-.552.894-.552h1.191V2.962c0-.267.104-.518.293-.707.189-.189.44-.293.707-.293.195 0 .385.057.548.164l5.4 3.534c.656.425.874 1.296.496 1.982l-.806 1.455c.062.165.125.329.188.494.874 2.286 1.699 4.443.769 6.03l-2.594 3.891v2.026c0 .276-.224.5-.5.5s-.5-.224-.5-.5v-2.177c0-.099.029-.195.084-.277l2.663-3.993c.639-1.092-.031-2.979-.743-4.849l-2.02 3.646.522 1.895c.073.266-.083.542-.349.615-.044.012-.088.018-.133.018-.224 0-.422-.151-.482-.367l-.968-3.515c-.049-.215-.165-.379-.335-.487-.119-.075-.256-.115-.395-.115-.056 0-.112.006-.167.019-.401.091-.652.491-.561.892.005.019.01.04.017.06l1.078 3.895c.035.127.019.261-.045.377l-.703 1.265c-.313 1.004-.468 2.046-.462 3.098.001.134-.051.259-.144.354-.094.095-.219.148-.353.149h-.005z"/><path d="M14.778 20.496c-.093 0-.184-.026-.263-.075l-2.508-1.555L9.5 20.421c-.079.049-.17.075-.263.075-.174 0-.333-.088-.425-.236-.07-.114-.093-.248-.062-.378s.11-.24.223-.311l2.737-1.697c.066-.049.14-.079.219-.091.012-.002.04-.004.052-.004l.023.25.002-.25c.016 0 .076.003.092.006.07.011.142.041.206.088l2.737 1.698c.234.145.306.454.161.688-.091.148-.25.237-.424.237z"/></svg>