<svg xmlns="http://www.w3.org/2000/svg" viewBox="0 0 24 24"><path d="M5.96 18.5c-.4 0-.777-.157-1.06-.441-.283-.284-.439-.66-.439-1.061 0-.101.01-.202.031-.299L6.574 6.698c.067-.328.247-.628.506-.846l.009-.009c.013-.012.036-.028.055-.039.259-.197.572-.304.898-.304H22.5c.401 0 .777.158 1.061.444.032.025.069.057.101.104.008.011.018.03.026.047.204.266.311.579.311.906 0 .1-.01.2-.031.299L21.89 17.302c-.142.694-.76 1.198-1.468 1.198H5.96zm-.49-1.598c-.006.031-.01.064-.01.098 0 .133.052.258.146.353s.221.147.354.147h14.461c.234 0 .438-.166.488-.394 0-.002 2.073-9.973 2.073-9.973l-7.539 5.276c-.419.294-.914.449-1.431.449-.697 0-1.365-.29-1.835-.796L7.523 7.05 5.47 16.902zm7.44-5.519c.282.303.684.477 1.102.477.31 0 .606-.093.857-.269L22.143 6.5H8.377l4.533 4.883zM.5 7.5C.224 7.5 0 7.276 0 7s.224-.5.5-.5h4c.276 0 .5.224.5.5s-.224.5-.5.5h-4zM.5 10.5c-.276 0-.5-.224-.5-.5s.224-.5.5-.5h3c.276 0 .5.224.5.5s-.224.5-.5.5h-3zM.5 13.5c-.276 0-.5-.224-.5-.5s.224-.5.5-.5h2c.276 0 .5.224.5.5s-.224.5-.5.5h-2z"/></svg>