<svg xmlns="http://www.w3.org/2000/svg" viewBox="0 0 24 24"><path d="M17 24c-.827 0-1.5-.673-1.5-1.5 0-.468.219-.902.58-1.183-1.008-.837-2.263-1.304-3.58-1.327v1.096c.59.209 1 .774 1 1.414 0 .827-.673 1.5-1.5 1.5s-1.5-.673-1.5-1.5c0-.64.41-1.205 1-1.414V19.99c-1.316.023-2.572.49-3.579 1.327.36.281.579.715.579 1.183 0 .827-.673 1.5-1.5 1.5s-1.5-.673-1.5-1.5c0-.742.537-1.361 1.265-1.475 1.26-1.289 2.935-2.009 4.735-2.034V18H7c-.827 0-1.5-.673-1.5-1.5v-.556c-1.162-.229-2.104-1.126-2.379-2.29L2.59 11H1.5c-.551 0-1-.449-1-1C.5 8.621 1.621 7.5 3 7.5S5.5 8.622 5.5 10c0 .551-.449 1-1 1h-.89l.488 2.441c.167.707.724 1.276 1.425 1.479.095-.536.475-.985 1.006-1.161.419-.127.855-.241 1.304-.341C7.174 11.591 5.5 6.817 5.5 5.5 5.5 2.812 7.976.315 10.908.049 11.267.017 11.635 0 12 0s.733.016 1.092.049C16.023.315 18.5 2.812 18.5 5.5c0 1.319-1.674 6.092-2.333 7.919.448.099.881.212 1.292.337.539.178.922.628 1.018 1.165.701-.203 1.259-.777 1.428-1.496L20.39 11h-.89c-.552 0-1-.449-1-1 0-1.379 1.122-2.5 2.5-2.5s2.5 1.121 2.5 2.5c0 .551-.448 1-1 1h-1.09l-.527 2.637c-.278 1.177-1.22 2.077-2.382 2.307v.556c0 .827-.673 1.5-1.5 1.5h-4.5v.99c1.801.026 3.475.746 4.735 2.034.728.114 1.265.732 1.265 1.475C18.5 23.327 17.827 24 17 24zm0-2c-.276 0-.5.224-.5.5s.224.5.5.5.5-.224.5-.5-.224-.5-.5-.5zm-5 0c-.276 0-.5.224-.5.5s.224.5.5.5.5-.224.5-.5-.224-.5-.5-.5zm-5 0c-.276 0-.5.224-.5.5s.224.5.5.5.5-.224.5-.5-.224-.5-.5-.5zm4.661-8.003c-1.64 0-3.265.241-4.829.716-.197.064-.332.254-.332.471V16.5c0 .276.224.5.5.5h10c.276 0 .5-.224.5-.5v-1.316c0-.217-.138-.408-.343-.476-1.555-.472-3.17-.712-4.793-.712-.118 0-.235.001-.353.004-.124-.002-.237-.003-.35-.003zm.698-1c.937 0 1.883.077 2.814.229C16.263 10.211 17.5 6.453 17.5 5.5c0-2.193-2.06-4.234-4.498-4.455-.329-.029-.666-.044-1.002-.044-.336 0-.673.015-1.002.045C8.56 1.267 6.5 3.307 6.5 5.5c0 .955 1.237 4.712 2.327 7.725.932-.152 1.877-.229 2.812-.229.124 0 .248.001.372.004.109-.002.228-.003.348-.003zM21 8.5c-.827 0-1.5.673-1.5 1.5h3c0-.827-.673-1.5-1.5-1.5zm-18 0c-.827 0-1.5.673-1.5 1.5h3c0-.827-.673-1.5-1.5-1.5z"/></svg>