<svg xmlns="http://www.w3.org/2000/svg" viewBox="0 0 24 24"><path d="M4 15c-1.241 0-2.25-1.009-2.25-2.25S2.759 10.5 4 10.5s2.25 1.009 2.25 2.25S5.241 15 4 15zm0-3.5c-.689 0-1.25.561-1.25 1.25S3.311 14 4 14s1.25-.561 1.25-1.25S4.69 11.5 4 11.5zM20 15c-1.241 0-2.25-1.009-2.25-2.25S18.759 10.5 20 10.5s2.25 1.009 2.25 2.25S21.241 15 20 15zm0-3.5c-.689 0-1.25.561-1.25 1.25S19.311 14 20 14s1.25-.561 1.25-1.25-.56-1.25-1.25-1.25z"/><path d="M7.23 23c-.4 0-.777-.157-1.06-.441-.283-.284-.439-.66-.439-1.061 0-.1.01-.2.03-.299l.832-3.993c-.567-.879-1.559-1.422-2.612-1.422-.53 0-1.055.139-1.518.401-.733.415-1.272 1.121-1.479 1.937-.055.223-.255.378-.483.378-.041 0-.082-.005-.122-.015-.268-.068-.431-.341-.363-.608.273-1.079.986-2.013 1.955-2.561.613-.347 1.307-.53 2.008-.53 1.089 0 2.112.421 2.875 1.17l.991-4.758c.141-.693.759-1.197 1.468-1.198h5.375c.709.001 1.327.505 1.469 1.2l.991 4.756c.763-.749 1.786-1.17 2.875-1.17.701 0 1.395.183 2.008.53.969.548 1.682 1.482 1.956 2.561.068.267-.095.54-.362.608-.042.01-.083.015-.123.015-.229 0-.428-.155-.484-.377-.207-.816-.746-1.522-1.479-1.937-.467-.264-.992-.403-1.521-.403-.28 0-.561.038-.834.114-.735.204-1.362.667-1.775 1.31l.832 3.993c.08.392.003.793-.218 1.127-.221.334-.559.562-.951.642-.101.021-.202.031-.302.031H7.23zm2.083-12c-.236 0-.442.168-.489.4L6.741 21.402c-.006.031-.01.064-.01.097 0 .134.052.259.146.354.095.095.22.147.354.147h9.54c.033 0 .067-.003.099-.01.131-.027.243-.103.317-.214.073-.111.099-.245.073-.376l-2.082-9.998c-.049-.233-.255-.402-.491-.402H9.313zM12 5.5c-1.241 0-2.25-1.009-2.25-2.25S10.76 1 12 1c1.241 0 2.25 1.009 2.25 2.25S13.241 5.5 12 5.5zM12 2c-.689 0-1.25.561-1.25 1.25S11.311 4.5 12 4.5s1.25-.561 1.25-1.25S12.69 2 12 2z"/><path d="M8.501 9c-.042 0-.084-.005-.126-.016-.128-.032-.236-.114-.305-.229s-.088-.25-.054-.379c.372-1.459 1.51-2.596 2.968-2.968.336-.086.68-.129 1.023-.129.732 0 1.455.2 2.092.578.944.561 1.614 1.456 1.885 2.52.033.129.014.264-.054.379s-.177.196-.306.229c-.04.01-.082.015-.124.015-.229 0-.428-.155-.484-.376-.206-.805-.712-1.483-1.427-1.907-.482-.286-1.029-.437-1.583-.437-.259 0-.52.033-.775.098-1.104.282-1.965 1.142-2.247 2.247-.056.22-.255.375-.483.375zM10.077 21c-.551 0-1-.448-1-1 0-.048.003-.095.01-.143l.357-2.499c.07-.489.496-.858.99-.858h3.132c.494 0 .919.369.99.858l.357 2.5c.038.264-.03.527-.189.741-.161.214-.395.353-.659.391-.046.007-.094.01-.142.01h-3.846zm0-1h3.846l-.357-2.5h-3.131l-.358 2.5z"/></svg>