<svg xmlns="http://www.w3.org/2000/svg" viewBox="0 0 24 24"><path d="M14.75 24c-.258 0-.477-.201-.498-.458l-.343-4.115c-.011-.133.03-.262.116-.365.086-.102.207-.164.34-.175a.5831.5831 0 0 1 .047-.002c.255 0 .472.202.493.459L15.21 23h3.08l.462-5.542c.021-.257.24-.458.498-.458h2v-3c0-2.481-2.019-4.5-4.5-4.5-.967 0-1.926.32-2.7.9-.087.065-.191.1-.3.1-.157 0-.306-.075-.4-.2-.08-.107-.114-.238-.095-.371.019-.132.088-.249.195-.329.946-.709 2.117-1.1 3.3-1.1 3.033 0 5.5 2.467 5.5 5.5v3.5c0 .276-.224.5-.5.5h-2.04l-.462 5.542c-.021.257-.24.458-.498.458h-4zM16.75 8c-2.206 0-4-1.794-4-4s1.794-4 4-4 4 1.794 4 4-1.794 4-4 4zm0-7c-1.654 0-3 1.346-3 3s1.346 3 3 3 3-1.346 3-3-1.346-3-3-3zM5.75 24c-.258 0-.477-.201-.498-.458L4.79 18H2.75c-.276 0-.5-.224-.5-.5V14c0-3.033 2.467-5.5 5.5-5.5s5.5 2.467 5.5 5.5v3.5c0 .276-.224.5-.5.5h-2.04l-.462 5.542c-.021.257-.24.458-.498.458h-4zm3.54-1l.462-5.542c.021-.257.24-.458.498-.458h2v-3c0-2.481-2.019-4.5-4.5-4.5s-4.5 2.019-4.5 4.5v3h2c.258 0 .477.201.498.458L6.21 23h3.08zM7.75 8c-2.206 0-4-1.794-4-4s1.794-4 4-4 4 1.794 4 4-1.794 4-4 4zm0-7c-1.654 0-3 1.346-3 3s1.346 3 3 3 3-1.346 3-3-1.346-3-3-3z"/></svg>