<svg xmlns="http://www.w3.org/2000/svg" viewBox="0 0 24 24"><path d="M1.5 24.001c-.827 0-1.5-.673-1.5-1.5v-17c0-.827.673-1.5 1.5-1.5h1.442L21.395.011c.035-.008.07-.011.104-.011.234 0 .44.166.49.394.058.27-.114.536-.383.595L7.674 4.001H22.5c.827 0 1.5.673 1.5 1.5v2c0 .827-.673 1.5-1.5 1.5H14v5h3.293l1.854-1.854c.094-.094.22-.146.354-.146h3c.827 0 1.5.673 1.5 1.5v9c0 .827-.673 1.5-1.5 1.5H1.5zm-.5-1.5c0 .276.224.5.5.5h21c.276 0 .5-.224.5-.5V21H1v1.501zm22-2.502V13.5c0-.276-.224-.5-.5-.5h-2.793l-1.854 1.854c-.094.094-.22.146-.354.146h-4c-.008 0-.016 0-.024-.001H11.5c-.276 0-.5-.224-.5-.5s.224-.5.5-.5H13V9.001h-1v.5c0 .827-.673 1.5-1.5 1.5h-6c-.827 0-1.5-.673-1.5-1.5v-.5H1V20h22zM4 9.501c0 .276.224.5.5.5h6c.276 0 .5-.224.5-.5v-4.5H4v4.5zm18.5-1.5c.276 0 .5-.224.5-.5v-2c0-.276-.224-.5-.5-.5H12v3h10.5zm-19.5 0v-3H1.5c-.276 0-.5.224-.5.5v2.5h2z"/><path d="M5.5 7c-.276 0-.5-.225-.5-.5s.224-.5.5-.5h1c.276 0 .5.224.5.5s-.224.5-.5.5h-1zM8.5 7c-.276 0-.5-.225-.5-.5s.224-.5.5-.5h1c.276 0 .5.224.5.5s-.224.5-.5.5h-1zM8.5 9c-.276 0-.5-.225-.5-.5s.224-.5.5-.5h1c.276 0 .5.224.5.5s-.224.5-.5.5h-1zM5.5 9c-.276 0-.5-.225-.5-.5s.224-.5.5-.5h1c.276 0 .5.224.5.5s-.224.5-.5.5h-1z"/></svg>