<svg xmlns="http://www.w3.org/2000/svg" viewBox="0 0 24 24"><path d="M21.5 19.5c-.276 0-.5-.224-.5-.5v-1.5H3V19c0 .276-.224.5-.5.5S2 19.276 2 19v-1.551C.845 17.215 0 16.199 0 15v-4c0-1.103.897-2 2-2 0-2.481 2.019-4.5 4.5-4.5h11C19.981 4.5 22 6.519 22 9c1.103 0 2 .897 2 2v4c0 1.199-.845 2.215-2 2.449V19c0 .276-.224.5-.5.5zM2 10c-.551 0-1 .449-1 1v4c0 .827.673 1.5 1.5 1.5h19c.827 0 1.5-.673 1.5-1.5v-4c0-.551-.448-1-1-1s-1 .449-1 1v1c0 .827-.673 1.5-1.5 1.5h-15c-.827 0-1.5-.673-1.5-1.5v-1c0-.551-.449-1-1-1zm17.5 2.5c.276 0 .5-.224.5-.5v-1c0-.711.388-1.374 1-1.729V9c0-1.93-1.57-3.5-3.5-3.5h-5v7h7zM3 9.271c.612.355 1 1.018 1 1.729v1c0 .276.224.5.5.5h7v-7h-5C4.57 5.5 3 7.07 3 9v.271z"/></svg>