<svg xmlns="http://www.w3.org/2000/svg" viewBox="0 0 24 24"><path d="M20.5 24c-.827 0-1.5-.673-1.5-1.5V22H5v.5c0 .827-.673 1.5-1.5 1.5h-2C.673 24 0 23.327 0 22.5v-2c0-.827.673-1.5 1.5-1.5H2V5h-.5C.673 5 0 4.327 0 3.5v-2C0 .673.673 0 1.5 0h2C4.327 0 5 .673 5 1.5V2h14v-.5c0-.827.673-1.5 1.5-1.5h2c.827 0 1.5.673 1.5 1.5v2c0 .827-.673 1.5-1.5 1.5H22v14h.5c.827 0 1.5.673 1.5 1.5v2c0 .827-.673 1.5-1.5 1.5h-2zm0-4c-.276 0-.5.224-.5.5v2c0 .276.224.5.5.5h2c.276 0 .5-.224.5-.5v-2c0-.276-.224-.5-.5-.5h-2zm-19 0c-.276 0-.5.224-.5.5v2c0 .276.224.5.5.5h2c.276 0 .5-.224.5-.5v-2c0-.276-.224-.5-.5-.5h-2zM19 21v-.5c0-.827.673-1.5 1.5-1.5h.5V5h-.5c-.827 0-1.5-.673-1.5-1.5V3H5v.5C5 4.327 4.327 5 3.5 5H3v14h.5c.827 0 1.5.673 1.5 1.5v.5h14zm1.5-20c-.276 0-.5.224-.5.5v2c0 .276.224.5.5.5h2c.276 0 .5-.224.5-.5v-2c0-.276-.224-.5-.5-.5h-2zm-19 0c-.276 0-.5.224-.5.5v2c0 .276.224.5.5.5h2c.276 0 .5-.224.5-.5v-2c0-.276-.224-.5-.5-.5h-2z"/></svg>