<svg xmlns="http://www.w3.org/2000/svg" viewBox="0 0 24 24"><path d="M22 7.11c-.134 0-.259-.052-.354-.146C19.1 4.417 15.71 3.015 12.1 3.015c-3.61 0-7 1.402-9.546 3.947-.023.024-.049.045-.077.064-.082.055-.178.084-.277.084-.168 0-.323-.083-.416-.223-.135-.202-.106-.47.069-.637C4.583 3.521 8.224 2.016 12.1 2.016c3.878 0 7.519 1.506 10.254 4.241.195.195.195.512 0 .707-.095.094-.221.146-.354.146z"/><path d="M5.03 10.94c-.134 0-.259-.052-.354-.146-.195-.195-.195-.512 0-.707 1.983-1.983 4.62-3.075 7.425-3.075 2.805 0 5.442 1.092 7.424 3.075.195.195.195.512 0 .707-.094.094-.22.146-.354.146s-.259-.052-.354-.146C17.023 9 14.637 8.012 12.1 8.012S7.177 9 5.382 10.794c-.093.094-.219.146-.352.146zM16.344 14.767c-.125 0-.243-.046-.336-.129-.006-.005-.013-.011-.019-.017-1.037-1.037-2.419-1.608-3.89-1.608-.175 0-.352.008-.527.025-1.267.121-2.461.683-3.36 1.583-.048.048-.104.085-.166.11-.06.025-.124.037-.189.037-.134 0-.259-.052-.354-.146s-.146-.22-.146-.354.052-.259.146-.354c1.226-1.226 2.858-1.901 4.596-1.901 1.74 0 3.372.675 4.598 1.901.094.094.146.22.146.354s-.052.259-.146.354-.22.145-.353.145zM12.1 22.01c-1.379 0-2.5-1.122-2.5-2.5s1.121-2.5 2.5-2.5 2.5 1.122 2.5 2.5-1.122 2.5-2.5 2.5zm0-4c-.827 0-1.5.673-1.5 1.5s.673 1.5 1.5 1.5 1.5-.673 1.5-1.5-.673-1.5-1.5-1.5z"/></svg>